<?xml version="1.0" encoding="UTF-8"?>
<svg xmlns="http://www.w3.org/2000/svg" xmlns:xlink="http://www.w3.org/1999/xlink" viewBox="0 0 235.871 212.886">
  <defs>
    <style>
      .cls-1 {
        fill: #b7b7b7;
      }

      .cls-2, .cls-3, .cls-4 {
        opacity: .7;
      }

      .cls-5 {
        fill: #fff;
      }

      .cls-6 {
        fill: #8b8b8b;
      }

      .cls-7 {
        fill: #c5c5c5;
      }

      .cls-8 {
        fill: #576065;
        opacity: .2;
      }

      .cls-8, .cls-9 {
        mix-blend-mode: multiply;
      }

      .cls-10 {
        fill: #e2e2e2;
      }

      .cls-11 {
        isolation: isolate;
      }

      .cls-12, .cls-4 {
        fill: #22292c;
      }

      .cls-3 {
        fill: #0f1619;
      }

      .cls-13 {
        fill: url(#radial-gradient);
      }

      .cls-14 {
        fill: #d4d4d4;
      }

      .cls-15 {
        fill: #7d7d7d;
      }

      .cls-16 {
        fill: #9a9a9a;
      }

      .cls-17 {
        fill: #b3e4fa;
        mix-blend-mode: screen;
        opacity: .6;
      }

      .cls-18 {
        fill: #606060;
      }

      .cls-19 {
        fill: #f1f1f1;
      }

      .cls-20 {
        fill: #a8a8a8;
      }

      .cls-21 {
        fill: #6e6e6e;
      }
    </style>
    <radialGradient id="radial-gradient" cx="93.766" cy="-69.822" fx="93.766" fy="-69.822" r="255.911" gradientUnits="userSpaceOnUse">
      <stop offset="0" stop-color="#e3f3fc"/>
      <stop offset=".22" stop-color="#aeb7bd"/>
      <stop offset=".606" stop-color="#8ca4af"/>
      <stop offset="1" stop-color="#393b3d"/>
    </radialGradient>
  </defs>
  <g class="cls-11">
    <g id="Layer_1" data-name="Layer 1">
      <g>
        <path class="cls-5" d="m224.721,60.44c-5.173-13.837-17.259-22.296-24.004-26.108-6.654-3.758-13.669-5.189-20.453-6.573-5.835-1.191-11.347-2.315-16.33-4.832-.405-.205-.837-.461-1.247-.708-2.127-1.359-4.123-3.11-6.233-4.964-1.92-1.684-3.903-3.425-6.119-4.979-5.854-4.108-11.884-6.766-18.433-8.124-.803-.166-1.652-.312-2.641-.454-.29-.044-.583-.08-.875-.115l-.496-.061c-.164-.021-.327-.042-.474-.058-9.687-1.055-20.843,1.012-30.626,5.632-1.574.743-3.135,1.509-4.693,2.273-3.591,1.762-6.981,3.425-10.471,4.798l-.61.235c-2.653.974-5.445,1.671-8.4,2.409-2.946.736-5.992,1.496-9.013,2.575-8.736,3.122-16.892,8.792-23.579,16.391l-.227.264c-.311.357-.62.713-.912,1.063-.496.594-.985,1.192-1.461,1.802-3.452,4.433-4.189,9.945-4.782,14.376l-.079.586c-.045.339-.102.687-.17,1.041-2.756,3.946-6.023,7.537-9.469,11.324-3.678,4.042-7.481,8.221-10.75,12.998-7.134,10.422-9.868,24.122-8.124,40.721.104,1.002.267,2.07.485,3.216,2.546,14.194,12.843,26.255,20.367,34.093,1.809,1.885,3.601,3.894,5.334,5.835,2.872,3.22,5.842,6.549,9.157,9.638.317.297.658.667.99,1.029,2.06,2.387,3.685,5.303,5.402,8.391,1.054,1.892,2.142,3.848,3.374,5.743,2.583,3.979,5.816,7.171,9.53,9.439.271.173.549.333.829.49l.228.13c.031.019.125.073.156.09.152.09.304.179.457.26,4.336,2.367,9.206,3.567,14.478,3.567,3.31,0,6.748-.482,10.221-1.433,3.846-1.052,7.496-2.484,11.027-3.87,2.47-.969,4.802-1.884,7.186-2.674,2.819-.936,5.805-1.39,9.13-1.39.328,0,.655.004.906.01,3.975.166,7.992.931,11.397,1.656,7.669,1.636,14.89,2.432,22.072,2.432h.003c7.341,0,14.492-.829,21.861-2.533,14.887-3.443,26.512-7.968,35.537-13.833,4.895-3.181,8.968-7.257,12.072-12.066,9.846-14.87,9.295-34.7,8.81-52.196-.126-4.548-.245-8.844-.183-12.879,0,0,0-.013,0-.021.11-4.195.664-8.429,1.249-12.91,1.226-9.394,2.495-19.107-.435-28.921-.264-.885-.58-1.794-.972-2.804Z"/>
        <g>
          <path class="cls-13" d="m220.034,104.428c.271-13.426,4.814-27.175.797-40.375-3.374-11.085-12.655-19.935-22.5-25.497-11.487-6.489-24.96-5.431-36.587-11.301-5.522-2.788-9.634-7.688-14.673-11.183-5.14-3.565-10.537-6.018-16.674-7.254-10.419-2.104-22.047.183-31.536,4.663-5.528,2.61-10.885,5.511-16.625,7.654-5.667,2.116-11.727,3.025-17.425,5.095-9.354,3.399-17.487,9.855-23.562,17.657-2.771,3.558-3.298,8.314-3.881,12.63-.111.83-.267,1.647-.457,2.451-6.021,9.188-14.597,16.316-20.841,25.547-7.421,10.97-8.515,24.701-7.099,37.513,1.452,13.126,10.556,24.632,19.428,33.873,4.847,5.048,9.165,10.5,14.3,15.284,4.867,4.535,7.387,10.929,10.986,16.41,6.938,10.557,18.24,13.411,30.092,10.168,6.146-1.683,11.927-4.468,17.967-6.471,8.156-2.706,16.236-1.626,24.453.08,14.215,2.951,27.66,3.047,41.83-.312,11.554-2.739,23.931-6.796,33.915-13.36,23.851-15.685,17.605-49.203,18.092-73.272Z"/>
          <path class="cls-8" d="m220.027,104.999c.345-13.423,4.964-27.147,1.017-40.369-3.313-11.103-12.546-20.005-22.359-25.62-11.452-6.552-24.93-5.567-36.524-11.501-5.508-2.818-9.592-7.74-14.612-11.264-5.119-3.592-10.504-6.073-16.634-7.345-10.407-2.161-22.047.062-31.561,4.491-5.543,2.58-10.914,5.451-16.666,7.564-5.679,2.085-11.743,2.959-17.453,4.999-9.373,3.349-17.541,9.76-23.658,17.527-2.791,3.544-3.344,8.296-3.949,12.608-.116.829-.275,1.646-.471,2.449-6.072,9.154-14.687,16.236-20.981,25.432-7.48,10.929-8.649,24.655-7.303,37.475,1.38,13.134,10.42,24.689,19.241,33.979,4.819,5.074,9.107,10.55,14.217,15.362,4.842,4.562,7.326,10.97,10.896,16.469,6.879,10.596,18.165,13.512,30.035,10.333,6.155-1.649,11.95-4.401,18.001-6.372,8.172-2.661,16.246-1.536,24.453.214,14.197,3.028,27.644,3.198,41.831-.083,11.568-2.676,23.968-6.664,33.988-13.175,23.935-15.554,17.875-49.105,18.492-73.173Zm-47.051-43.505c-1.792,2.975-5.202,4.332-8.249,5.669-4.524,1.982-8.085,4.351-10.867,8.586-2.804,4.267-4.944,8.929-7.379,13.409-1.851,3.407-3.759,7.493-7.042,9.792-2.03,1.42-4.347,2.23-6.383,3.588-2.929,1.951-3.052,4.523-3.737,7.61-.78,3.506-2.728,5.048-6.189,5.812-9.747,2.157-19.121,7.902-22.943,17.406,6.51-2.934,13.503-6.45,20.67-4.15.742.238.748,1.271,0,1.507-8.719,2.753-17.147,12.998-19.34,21.764-.954,3.825-1.153,14.944-7.512,14.458-3.786-.291-7.05-2.677-10.62-3.781-4.895-1.515-10.274-2.259-15.159-.203-2.427,1.02-4.9,3.774-7.655,3.365-3.594-.533-3.767-6.032-7.929-5.891-3.031.103-5.803.934-8.451-1.098-2.606-2-4.75-4.471-7.065-6.785-5.911-5.906-12.878-11.433-17.878-18.156-6.519-8.767-8.064-20.833-6.571-31.416.428-3.038,1.138-6.146,2.132-9.054,2.43-7.092,7.207-13.134,12.51-18.321,2.784-2.722,6.271-4.511,9.446-6.71,4.806-3.33,4.113-7.65,4.05-12.888-.008-.634.891-1.099,1.333-.552,2.31,2.849,3.06,6.312,3.923,9.763,1.201-6.451,2.628-14.025,8.852-17.06,1.743-.851,5.512-3.168,7.493-2.362,2.563,1.041,4.198,3.422,6.184,5.3-1.075-3.461-2.471-6.815-3.426-10.32-.118-.434.144-.817.546-.96,3.399-1.217,4.645-5.527,8.096-6.471,1.334-.365,2.69-.439,4.051-.377-.665-.772-1.365-1.511-2.145-2.194-.481-.423-.159-1.111.346-1.306,2.218-.854,4.67-1.54,6.666-2.881-1.394-.072-2.782.016-4.195.051-.952.022-.967-1.219-.207-1.534,12.481-5.186,23.772-13.047,37.661-13.852,4.704-.273,10.692.188,13.489,4.576,1.938,3.043.137,9.621-1.044,12.662-.248.641-1.354.841-1.506,0-.413-2.309-.592-4.637-.74-6.969-.519,2.339-1.156,4.642-2.196,6.832-.186.389-.724.477-1.069.28-2.672-1.515-5.327-3.054-7.949-4.65.258.602.511,1.203.774,1.803.272.625-.36,1.589-1.068,1.068-2.698-1.977-9.975-4.811-12.69-1.409-2.474,3.102,2.515,7.677,3.651,10.47.123.303-.074.742-.358.882-4.725,2.319-11.809,2.94-14.582,7.874,5.174,1.762,11.532.57,16.709-.33,2.472-.43,4.941-.884,7.4-1.372,1.203-.238,2.889-.791,4.053-.11,3.013,1.767.625,6.814-.636,8.86-1.886,3.061-3.892,5.947-5.352,9.074-.034.243-.057.482-.055.719,5.738-2.096,8.887-8.045,13.742-11.514.427-.305,1.008.023,1.146.468.406,1.297.387,2.699.467,4.044.058.967.068,1.996.27,2.942.325,1.525,1.675,1.188,2.125-.134.952-2.787,1.188-5.949,2.624-8.561.736-1.339,1.892-2.727,3.58-1.96,2.664,1.211,4.15,3.451,7.083,3.78-.551-1.595-1.527-2.865-2.662-4.203-.652-.769.339-1.766,1.104-1.104,4.954,4.273,10.557,7.855,16.844,9.807,4.625,1.437,9.551,2.489,13.554,5.349.342.244.516.68.28,1.068Z"/>
          <path class="cls-17" d="m41.246,66.678c-3.586,2.7-6.365,6.208-10.029,8.909-3.017,2.223-5.716,4.719-8.181,7.533-5.68,6.485-8.448,14.413-9.193,22.888-.799,9.065,1.733,17.868,6.556,25.465,2.668,4.204,6.097,7.644,9.487,11.23,2.67,2.828,5.021,6.04,8.305,8.191.245.161.776-.345.559-.582-11.092-12.082-22.2-24.295-22.882-41.532-.367-9.286,2.785-17.821,8.484-25.052,2.469-3.131,5.673-5.687,8.721-8.225,3.127-2.606,5.324-5.98,8.386-8.584.245-.208.034-.428-.212-.242Z"/>
          <path class="cls-4" d="m78.585,26.738c-.778.272-3.317.005-5.082.372-.565-1.182-3.393-.157-4.323.188-5.174,1.919-10.24,3.833-14.915,6.812-2.262,1.441-4.036,2.966-5.632,4.707-2.673,2.278-5.538,5.275-5.629,8.134,0,.008,0,.013,0,.02-.088.621-.003,1.296.069,1.888.109.89-.232,1.804-.033,2.711.088.394.701-.119.718-.36.058-.847.414-1.779.678-2.585.072-.222.084-.48.093-.734.949-.06,2.175-.428,3.183-.791.038.274.097.562.167.872.204.91.27,1.821.369,2.749.092.847.462,2.198.235,3.048-.141.522.598.257.731-.03.576-1.236.448-2.893.579-4.227.086-.86.1-1.645.002-2.502-.027-.241-.02-.493-.007-.746,3.223-1.351,6.316-3.275,9.259-5.356.067.102.136.203.2.308.457.747.913,1.47,1.309,2.256.162.322.732-.105.632-.389-.28-.776-.565-1.547-.943-2.281-.091-.18-.175-.373-.257-.568.174-.126.351-.252.524-.379.363.655.807,1.292,1.093,1.877.762,1.557,1.451,3.196,2.488,4.596.193.262.702-.21.623-.463-.538-1.713-.793-3.476-1.436-5.163-.23-.608-.542-1.458-.923-2.224.678-.516,1.351-1.031,2.012-1.541.59-.457,1.167-.933,1.737-1.421,1.675-1.239,3.291-2.546,4.789-3.945.123-.115.222-.241.306-.369.437.075.916.072,1.312.144,1.002.182,1.975.513,2.963.756.27.066.794-.508.447-.666-1.04-.477-2.442-1.427-3.745-1.616.06-.058.123-.123.184-.185.143.001.296-.019.43-.036.716-.092,1.453.189,2.164.282.14.019.435-.294.24-.356-.636-.205-1.264-.506-1.917-.654,1.791-.476,3.793-.602,5.371-1.593.26-.163.387-.698-.068-.538Zm-7.212,2.165c-.144.011-.341.186-.275.311-.418-.784-14.755,7.371-15.724,8.047-3.152,2.198-6.873,4.521-9.566,7.381-.021-.4-.014-.852.043-1.399.028-.04.06-.077.089-.117,4.653-5.412,10.03-9.362,16.738-12.053,2.319-.932,4.669-1.792,7.01-2.66,1.898-.704,2.174-.321,1.685.489Z"/>
          <path class="cls-4" d="m84.691,181.87c-1.21-5.565-8.724-11.183-14.342-9.691-.024.007-.053.024-.081.038-2.755-.281-5.461.186-5.68,2.779-.478,5.641,8.608,10.191,13,11.421,4.244,1.188,8.194.47,7.102-4.547Z"/>
          <path class="cls-4" d="m189.406,85.435c-8.127,3.318-17.089,10.684-17.991,20-.283-.479-.606-.877-.948-1.241.107-2.472.24-4.916.956-7.359.09-.305-.357-.109-.424.07-.763,2.043-1.259,4.243-1.477,6.461-1.637-1.165-3.723-1.488-6.084-1.373-1.718-.129-3.384.011-5.014.352-.35-1.483-.628-2.958-.626-4.651.002-2.416.481-7.045,2.215-8.977.262-.291-.096-.447-.337-.248-2.304,1.896-2.884,5.926-3.311,8.702-.17,1.121-.384,3.643-.054,5.731-2.561.81-5.044,2.067-7.512,3.526-3.276,1.938-6.392,4.094-9.278,6.515-.175-.176-.364-.34-.534-.52-.554-.585-1.115-1.148-1.643-1.76-.524-.605-1.086-1.157-1.726-1.638-.564-.425-1.232-.731-1.733-1.229-.212-.21-.708.227-.522.46.359.458.842.756,1.255,1.161.665.65,1.259,1.295,1.833,2.034.542.7,1.102,1.378,1.661,2.065.114.14.212.262.31.37-.296.261-.572.542-.862.808-.193-.16-.377-.334-.552-.51-.484-.493-.928-1.02-1.5-1.417-.177-.124-.589.273-.413.431.54.485.929,1.109,1.366,1.684.119.157.251.32.392.476-1.141,1.085-2.252,2.203-3.292,3.398-2.081-.775-4.988-.559-6.77-.481-4.692.206-8.386,1.44-12.494,3.544-.175.09-.225.438.043.331,4.464-1.771,8.392-2.642,13.231-2.498,1.574.048,3.12.301,4.627.74-.066.083-.139.162-.205.246-2.742,3.497-5.103,7.902-5.88,12.424-2.425.515-5.104,1.913-6.639,3.191-1.579,1.315-2.934,2.763-4.174,4.401-.97,1.285-1.381,3.688-2.505,4.732-.116.109-.138.367.089.274,1.659-.68,2.943-3.999,4.038-5.265,2.544-2.94,5.546-4.437,8.973-5.595-.048.622-.068,1.246-.048,1.868.044,1.262.343,2.34.823,3.271-.692.273-1.39.918-1.773,1.325-.888.944-1.547,2.068-2.413,3.032-.287.32.117.538.383.282.672-.646,1.251-1.373,1.866-2.069.355-.403.741-.766,1.156-1.105.385-.316.851-.433,1.274-.648.578.817,1.32,1.49,2.168,2.042-.55.309-1.05.879-1.289,1.387-.111.241-.259.474-.418.686-.097.13-.286.29-.181.468.002.004.004.008.006.012.032.053.129.059.18.048.385-.078.652-.524.865-.821.41-.571.917-.946,1.428-1.423,2.346,1.306,5.347,1.791,8.004,1.795,5.03.008,10.676-.561,15.936-2.103.09.689.44,1.332.793,1.969.518.939.835,1.962,1.601,2.746.202.209.733-.2.6-.444-.477-.868-.594-1.855-.781-2.812-.106-.54-.364-1.057-.525-1.585-.038-.128-.07-.252-.102-.372,6.726-2.27,12.626-6.259,15.478-12.869,1.523-3.528,2.311-7.321,2.495-11.147.292-.161.586-.316.902-.426.457-.159.942-.245,1.409-.374.246-.068.629-.649.175-.582-.865.128-1.727.172-2.452.574.032-1.24.007-2.481-.085-3.716l.002-.003c.695-.686,1.705-1.112,2.598-1.466.629-.249,1.234-.561,1.85-.844.319-.146.645-.274.977-.387-.253.093,2.194-.71,1.005-.109-.066.033-.083.166.018.125.523-.223.371-.149.886-.441.072-.041.179-.184.073-.248-1.527-.94-4.155.469-5.626,1.048-.466.183-1.203.512-1.912.943-.126-1.133-.297-2.257-.52-3.368-.055-.267-.117-.515-.182-.763,1.383-4.548,2.237-8.859,5.119-12.838,3.113-4.299,7.51-6.669,11.817-9.504.237-.156.368-.695-.067-.517Zm-20.205,42.787c-3.803,11.898-18.311,13.627-29.011,14.577-5.665.503-11.595-1.178-12.328-7.39.081.068.175.13.264.193,2.308,2.695,8.703,3.047,11.533,3.193,4.967.259,9.829-2.645,13.941-5.106,3.944-2.361,9.697-5.502,12.239-9.472,1.69-2.639,2.343-5.482,3.035-8.516.532-2.338.409-5.011.771-7.409.286.798.51,1.575.684,2.232,1.543,5.816.669,12.069-1.129,17.696Z"/>
          <path class="cls-4" d="m210.324,59.815c.079-2.267-2.164-5.164-3.101-6.765-2.794-4.767-6.768-8.941-11.723-11.436-1.952-.982-5.794-2.325-8.227-1.364-1.852-.032-4.001.78-5.763,1.02-2.866.388-5.877-.164-8.746-.361-.109-.008-.42.217-.269.335,3.209,2.518,8.461,1.69,12.613.511-.465.742-.456,1.667-.199,2.634-1.972.518-3.906,1.59-5.882,1.846-.146.02-.411.388-.164.39,2.153.017,4.282-.705,6.396-1.212.705,1.688,1.938,3.365,2.611,4.335.702,1.014,1.506,1.989,2.374,2.928-.158.139-.314.282-.478.413-.077.061-.161.125-.251.165-.015.007-.235.128-.115.073-.083.038-.179.126-.155.228.067.296.727-.101,1.326-.538.147.154.301.305.451.458-.358.265-.723.522-1.133.711-.26.119-.419.67-.016.492.515-.229,1.014-.526,1.492-.855.376.372.759.74,1.156,1.097-.887.521-1.741,1.108-2.57,1.652-.8.523-1.511,1.16-2.231,1.785-.649.563-1.349,1.616-2.123,2.015-.074.038-.223.278-.048.282.343.007.384-.086.661-.341.939-.86,1.952-1.648,2.944-2.45,1.219-.985,2.658-1.637,4.031-2.372.843.719,1.717,1.406,2.616,2.051-.129.137-.254.273-.37.399-1.276,1.391-2.339,2.99-3.402,4.544-.192.281.142.357.308.142,1.012-1.31,2.031-2.608,3.162-3.819.29-.311.587-.586.891-.85,1.04.72,2.105,1.382,3.177,1.992-.718,1.15-1.161,2.564-1.775,3.677-.187.34.294.242.424.041.491-.767.91-1.574,1.348-2.372.191-.348.411-.672.637-.992.616.337,1.231.663,1.847.959.868.418,2.005.895,3.166,1.175-1.668,1.794-2.433,4.811-2.779,7.147-.052.354.526.031.586-.164.416-1.356.988-2.634,1.65-3.887.486-.92,1.225-1.897,1.472-2.92.601.079,1.189.094,1.731-.013-1.024,3.036-1.008,6.771-.845,9.655.022.402.602.02.623-.242.33-4.18,1.738-7.857,2.679-11.875.032-.141.021-.24-.009-.322Zm-3.418.959c.025-.163.085-.346.119-.455.046-.142.014-.279-.119-.356-.038-.023-.076-.029-.114-.037.177-2.415-7.675-10.281-8.453-10.911-1.245-1.009-8.999-6.594-10.973-5.374-.038-1.194.543-2.064,2.685-1.685,3.203.566,5.946,2.087,8.481,4.072,4.053,3.174,7.156,7.907,9.359,12.499.863,1.799.194,2.31-.985,2.247Z"/>
          <path class="cls-4" d="m152.743,44.599c-4.628-1.713-9.122-3.61-13.777-5.119.233-.932-.359-1.902-1.246-2.785.291-.087.561-.162.801-.218,3.53-.822,7.166-1.251,10.614-2.399.225-.076.47-.634.092-.536-3.014.778-6.172,1.027-9.244,1.511-1.151.181-2.297.409-3.444.628-1.069-.817-2.206-1.482-2.849-1.866.44-.325.85-.69,1.129-.878,1.195-.807,2.5-1.475,3.524-2.505.233-.233.03-.477-.226-.256-1.556,1.348-3.6,2.012-5.305,3.167-.309-.147-.633-.256-.954-.37.062-.086.123-.171.189-.251.431-.531.889-1.045,1.299-1.594.277-.372-.191-.478-.416-.193-.509.639-1.083,1.227-1.61,1.851-.411-.122-.828-.229-1.257-.314-1.047-.467-2.229-.832-3.465-1.107.045-1.263-.195-2.623-.258-3.719-.144-2.533.2-5.201-.492-7.667-.07-.25-.491.077-.455.28.395,2.26-.039,4.66-.198,6.927-.091,1.286-.042,2.597-.086,3.894-.851-.135-1.711-.226-2.557-.282-.192-.991-.884-1.935-1.249-2.855-.122-.308-.661.096-.581.358.156.512.35,1.01.549,1.508.121.305.216.624.316.94-1.81-.058-3.511.062-4.849.346-.329-.242-.657-.487-.992-.721-1.275-.889-3.323-1.677-4.023-3.159-.142-.302-.665.097-.58.358.455,1.414,2.145,2.612,3.257,3.513.199.161.401.354.604.555-.507.223-.905.457-1.207.703-.773-.219-1.612-.307-2.379-.452-1.695-.324-3.386-.45-5.059-.912-.168-.047-.479.276-.279.347,1.268.446,2.556.75,3.872,1.012,1.043.206,2.114.628,3.186.828-.509,1.205.687,2.539,2.242,3.661-.193.073-.386.146-.575.229-.715.314-1.578.555-2.106,1.162-.203.235.009.417.253.288,1.023-.541,2.162-.809,3.287-1.101.227.145.458.283.685.416-1.381.567-2.748,1.188-4.116,1.703-2.861,1.078-6.08,2.895-9.061,3.511-.222.046-.518.53-.146.485,2.305-.283,4.632-1.472,6.849-2.184,2.64-.848,5.291-1.727,7.867-2.771.326.161.633.304.902.42,1.697.737,3.466,1.283,5.269,1.674-.197.6-.355,1.216-.513,1.839-.443,1.756-.913,3.493-1.156,5.291-.059.431.678.071.737-.206.493-2.309,1.429-4.466,2.192-6.674,1.677.288,3.378.435,5.078.457.259.441.601.851.861,1.273.129.212.592-.167.504-.373-.133-.308-.269-.605-.403-.903.134-.003.267.002.401-.002.178-.005.391-.004.617,0,.222.206.451.4.644.588.7.679,1.423,1.333,2.158,1.974.269.234.877-.282.638-.561-.562-.652-1.105-1.316-1.638-1.99.959-.021,1.976-.108,2.793-.401,1.773.392,3.561.731,5.288,1.21,3.254.903,6.428,2.128,9.701,2.943.216.054.625-.422.353-.524Z"/>
          <path class="cls-3" d="m190.694,168.876c-3.112,1.201-6.168,2.587-9.156,4.068-3.039,1.506-6.419,3.133-9.318,5.224-2.362,1.032-4.705,2.795-5.79,4.788-1.807,3.319,3.68,3.039,5.552,2.829,6.009-.677,12.033-3.324,17.29-6.16,3.956-2.134,9.958-5.723,12.226-9.728,3.698-6.53-8.884-1.763-10.803-1.021Z"/>
          <g class="cls-2">
            <path class="cls-12" d="m60.341,95.59c-3.884,1.038-8.703,2.138-12.72,2.007-2.823-.092-5.458-.375-8.267-.283-.139-3.052-.725-5.98-1.91-8.556,1.07-.307,2.125-.397,3.231-.529,1.33-.16,2.676-.627,3.978-.933.262-.062.616-.654.175-.581-1.444.237-2.89.552-4.345.709-1.164.125-2.32.112-3.348.728-.069-.138-.142-.273-.209-.411.336-.05.676-.085,1.015-.166.54-.129,1.053-.314,1.532-.593.317-.185.273-.65-.138-.438-.626.327-1.387.481-2.09.477-.244-.001-.468.023-.679.084-.228-.357-.481-.696-.767-.992.282,0,.565-.014.848-.06,1.35-.223,2.613-1.147,3.823-1.723,1.859-.884,3.913-2.317,4.723-4.271.105-.252-.281-.153-.365-.036-1.466,2.032-6.2,3.943-8.646,3.736-1.502-.128-2.668.1-3.623.99-.695.097-1.387.456-2.016,1.166-1.645,1.854-2.711,3.941-3.447,6.156-4.53,7.971-6.156,19.509-4.6,27.638.393,2.046,1.448,6.439,4.226,6.515,1.076.735,2.825,1.267,3.31,1.464,1.594.647,3.142,1.442,4.655,2.256,2.229,1.199,3.027,3.015,4.6,4.802.175.199.567-.162.504-.373-.448-1.469-.995-2.858-1.8-4.167-.678-1.103-2.733-1.836-3.817-2.371-1.57-.776-3.173-1.364-4.83-1.932-.092-.031-.305-.081-.574-.146,1.792-.838,3.193-2.675,4.302-4.566.633.204,1.272.391,1.884.596,1.405.468,2.464,1.306,3.751,1.981.244.129.706-.352.428-.53-1.232-.784-2.16-1.656-3.526-2.261-.645-.285-1.295-.569-1.951-.834.461-.862.864-1.7,1.216-2.421.132-.27.259-.551.388-.83.809.185,1.619.358,2.435.529,2.447.514,5.002,1.292,7.464,1.574.316.036.825-.586.373-.685-1.276-.28-2.475-.976-3.723-1.375-1.105-.353-2.26-.568-3.383-.856-.74-.189-1.602-.533-2.471-.778,1.035-2.527,1.923-5.364,2.536-8.306.154-.119.423-.424.167-.501-.022-.007-.041-.027-.061-.041.3-1.529.512-3.083.643-4.635.682.019,1.365.029,2.046.1,1.309.136,2.59.494,3.906.526.252.006.684-.521.307-.562-1.265-.141-2.478-.612-3.731-.846-.785-.146-1.622-.2-2.45-.194.034-.578.057-1.157.062-1.732.464.072.997.057,1.694.105,2.229.152,4.518.484,6.754.44,3.91-.08,8.857-2.104,12.424-3.549.195-.079.459-.611.087-.513Zm-24.153-5.717c-2.364,5.339-5.395,10.074-6.7,15.861-1.158,5.133-.314,11.384.892,16.462-1.627,1.625-3.477,2.148-4.851-.949-.97-2.185-1.086-4.748-1.104-7.174.069-.007.145-.039.213-.108.004-.004.011-.005.016-.009.639.036,1.403-.117,1.771-.207.256-.062.498-.245.575-.507.05-.161-.011-.271-.123-.322.004-.006.008-.011.011-.017-.763-.213-1.722-.019-2.414-.499-.018-.013-.037-.016-.057-.023-.005-.85.013-1.737.042-2.639.602-.12,1.2-.356,1.722-.589.337-.15.585-.837.02-.648-.523.174-1.126.347-1.701.346.13-2.829.435-5.83,1.022-8.771.02.164.337-.01.37-.134.988-3.585,2.208-6.894,3.677-10.327,2.093-4.887,5.064-2.737,6.806.046-.082.062-.154.133-.186.207Z"/>
            <path class="cls-12" d="m27.212,104.511c-.31-.003-.62.028-.932.016-.382-.016-.527-.185-.836-.338-.207-.103-.468.148-.523.326-.316.992,1.537.656,2.023.629.258-.015.655-.629.268-.633Z"/>
          </g>
          <path class="cls-4" d="m102.657,178.471s-.004-.004-.007-.006c-.189-2.677-4.481-4.377-6.197-1.835-.697,1.033-.383,1.992.366,2.684.484.85,1.316,1.572,2.172,1.939,1.418.606,3.026-.281,3.517-1.698.091-.26.127-.513.141-.762.099-.116.149-.259.009-.322Z"/>
          <path class="cls-4" d="m57.617,169.87c-1.455-1.515-2.848-3.454-5.208-2.776-1.503.431-2.042,1.828-1.65,3.092-.041.287,0,.589.174.882,1.197,2.019,5.213,4.641,7.399,2.83,1.53-1.266.336-2.934-.715-4.027Z"/>
          <path class="cls-4" d="m193.685,132.654c-.88.062-1.723.691-2.341,1.28-.652.62-1.241,1.401-1.325,2.323-.02.217.107.532.339.6.796.229,1.516.037,2.207-.403.576-.367,1.639-1.348,1.488-2.161.146-.284.261-.572.328-.847.137-.537-.17-.829-.696-.792Z"/>
          <path class="cls-3" d="m212.162,104.6c-1.134-1.837-3.543-1.581-4.981-.266-1.248,1.142-1.941,2.501-2.552,3.951-1.221,1.899-2.038,4.167-2.172,5.478-.104,1.016-.028,2.279.335,3.411.024.184.046.369.081.551.412,2.127,2.819,3.591,4.734,2.299,1.554-.292,2.895-1.229,3.958-2.513,2.799-3.383,2.832-9.291.596-12.912Z"/>
          <path class="cls-4" d="m207.396,92.287c-.212-.31-.568-.303-.901-.229-.552.122-1.137.633-1.093,1.237-.058.185-.093.379-.122.585-.042.305.28.435.525.395.363-.06.639-.321.829-.618.026-.041.048-.087.072-.129.068-.033.135-.064.205-.108.343-.214.767-.72.484-1.132Z"/>
          <path class="cls-4" d="m166.589,47.033c-.913-1.02-2.596-1.212-3.609-.235-.159-.02-.413.219-.375.385.004.02.012.038.017.058-.271.463-.291.988.264,1.334.195.123.399.208.608.276.482.504,1.118.838,1.862.844,1.377.011,2.155-1.625,1.233-2.661Z"/>
          <path class="cls-17" d="m125.053,13.997c-13.725-3.258-27.851,3.088-39.797,9.539-.25.136-.333.607.06.477,6.251-2.066,12.204-4.999,18.503-7.051,7.01-2.283,13.702-3.197,20.995-2.524.2.019.53-.371.238-.44Z"/>
        </g>
      </g>
    </g>
  </g>
</svg>