<?xml version="1.0" encoding="UTF-8"?>
<svg xmlns="http://www.w3.org/2000/svg" viewBox="0 0 1000 1000">
  <defs>
    <style>
      .cls-1 {
        fill: #1a112b;
        mix-blend-mode: multiply;
        opacity: .2;
      }

      .cls-2 {
        isolation: isolate;
      }

      .cls-3 {
        mix-blend-mode: screen;
      }

      .cls-3, .cls-4 {
        fill: #fff;
        stroke: #fff;
        stroke-miterlimit: 10;
      }
    </style>
  </defs>
  <g class="cls-2">
    <g id="Ebene_1" data-name="Ebene 1">
      <g>
        <polygon class="cls-1" points="931.044 492.543 904.443 478.492 703.844 372.558 703.844 372.558 686.865 363.591 291.234 154.666 88.089 46.564 92.591 140.37 273.863 537.443 88.626 927.958 89.667 927.421 89.585 927.576 88.626 1000 931.044 564.585 928.571 493.82 931.044 492.543"/>
        <g>
          <g>
            <g>
              <polygon class="cls-4" points="70 1.109 282.653 433.082 70 881.394 912.419 445.979 70 1.109"/>
              <polygon class="cls-4" points="73.965 93.806 263.072 508.044 70.959 881.012 70 953.436 912.419 518.021 909.945 447.256 69.464 0 73.965 93.806"/>
              <polygon class="cls-4" points="70 1.109 282.653 433.082 70 881.394 912.419 445.979 70 1.109"/>
              <polygon class="cls-4" points="122.839 29.011 302.916 394.808 90.258 843.119 885.818 431.928 122.839 29.011"/>
              <polygon class="cls-3" points="912.419 445.979 885.818 431.928 90.258 843.119 302.916 394.808 122.839 29.011 237.563 89.6 70 1.109 282.653 433.082 70 881.394 912.419 445.979"/>
              <polygon class="cls-3" points="797.005 429.249 155.548 90.5 322.306 429.249 797.005 429.249"/>
              <g>
                <polygon class="cls-3" points="300.028 762.496 487.44 221.557 381.334 165.52 158.895 835.448 300.028 762.496"/>
                <polygon class="cls-3" points="685.219 325.994 580.555 270.726 441.553 689.353 585.02 615.201 685.219 325.994"/>
              </g>
            </g>
            <g>
              <polygon class="cls-4" points="70 1.109 282.653 433.082 70 881.394 912.419 445.979 70 1.109"/>
              <polygon class="cls-4" points="73.965 93.806 263.072 508.044 70.959 881.012 70 953.436 912.419 518.021 909.945 447.256 69.464 0 73.965 93.806"/>
              <polygon class="cls-4" points="70 1.109 282.653 433.082 70 881.394 912.419 445.979 70 1.109"/>
              <polygon class="cls-4" points="122.839 29.011 302.916 394.808 90.258 843.119 885.818 431.928 122.839 29.011"/>
              <polygon class="cls-3" points="912.419 445.979 885.818 431.928 90.258 843.119 302.916 394.808 122.839 29.011 237.563 89.6 70 1.109 282.653 433.082 70 881.394 912.419 445.979"/>
              <g>
                <polygon class="cls-3" points="300.028 762.496 487.44 221.557 381.334 165.52 158.895 835.448 300.028 762.496"/>
                <polygon class="cls-3" points="685.219 325.994 580.555 270.726 441.553 689.353 585.02 615.201 685.219 325.994"/>
              </g>
            </g>
          </g>
          <polygon class="cls-3" points="302.916 394.808 280.175 442.755 864.873 442.755 885.818 431.928 122.839 29.011 302.916 394.808"/>
        </g>
      </g>
    </g>
  </g>
</svg>