<?xml version="1.0" encoding="UTF-8"?>
<svg id="OBJECTS" xmlns="http://www.w3.org/2000/svg" xmlns:xlink="http://www.w3.org/1999/xlink" viewBox="0 0 116.648 116.667">
  <defs>
    <style>
      .cls-1 {
        fill: #212a3c;
        opacity: .2;
      }

      .cls-2 {
        fill: #f15a29;
      }

      .cls-3 {
        fill: #fff;
      }

      .cls-3, .cls-4 {
        opacity: .3;
      }

      .cls-5 {
        fill: #ea3232;
      }

      .cls-6 {
        fill: #f7941e;
      }

      .cls-4 {
        fill: url(#linear-gradient);
      }
    </style>
    <linearGradient id="linear-gradient" x1="-112.286" y1="-72.129" x2="-85.43" y2="-22.711" gradientTransform="translate(134.49 65.632) rotate(-9.046) scale(.831 .851) skewX(1.295)" gradientUnits="userSpaceOnUse">
      <stop offset="0" stop-color="#fff"/>
      <stop offset="1" stop-color="#fff" stop-opacity="0"/>
    </linearGradient>
  </defs>
  <g>
    <path class="cls-6" d="m116.667,58.334c0,32.216-26.117,58.333-58.333,58.333S0,90.55,0,58.334,26.117,0,58.334,0s58.333,26.118,58.333,58.334Z"/>
    <path class="cls-2" d="m82.532,36.729c-4.754-2.161-5.617-3.889-10.803-3.457-8.211.433-15.124,6.049-23.766,5.184-9.074-.863-15.987-4.752-25.493-2.593-6.051,1.729-6.481,1.729-12.964.865-1.551-.222-3.3-.387-5.16-.497C1.552,43.049,0,50.51,0,58.334c0,32.216,26.117,58.333,58.334,58.333s58.333-26.117,58.333-58.333c0-7.099-1.27-13.899-3.592-20.191-9.286,4.525-20.379,3.667-30.543-1.415Z"/>
    <path class="cls-5" d="m65.68,77.778c-6.049,3.456-12.099,2.593-19.013,3.89-14.26,2.593-19.444-8.644-31.975-10.804-4.753-.863-8.21-.863-12.963-2.593-.3-.074-.607-.161-.913-.248,4.617,27.603,28.605,48.644,57.518,48.644,32.216,0,58.333-26.117,58.333-58.333,0-.265-.017-.524-.019-.788-9.5,2.297-20.257,8.237-27.635,11.591-8.209,3.888-15.124,4.32-23.333,8.642Z"/>
    <path class="cls-2" d="m18.69,15.557c1.165-1.081,2.378-2.109,3.63-3.094,1.475.031,3.174.069,3.174.069h5.509c.433,0,13.936-.217,13.936-.217,0,0,2.592-.324,3.025-.324.317,0,3.731.118,5.517.181.641.02,1.073.036,1.073.035,0,0-1.837.108-3.457.432-1.621.324-3.566.757-4.106.865-.539.107-1.404,0-2.376.107-.972.107-2.484.324-3.673.648-1.189.324-2.917.216-3.889.433-.973.216-2.054.323-4.105.431-2.052.109-6.049.434-7.237.434h-7.021Z"/>
    <path class="cls-2" d="m92.361,103.704c-3.192-.082-10.427-.974-17.024-.974s-14.259.648-14.259.648c0,0,6.598.973,9.684.973h6.598c1.489,0,3.617.567,5.745.647,2.127.082,7.129-.08,7.129-.08,0,0,1.481-.088,3.476-.212.515-.394,1.026-.791,1.527-1.201-1.067.136-2.069.218-2.875.198Z"/>
    <path class="cls-2" d="m95.892,28.899c-.55.053-2.529.285-4.174.441-1.644.159-3.483.081-3.483.081,0-.001.428.058,1.063.144,1.771.244,5.154.707,5.472.738.431.044,3.042-.016,3.042-.016,0,0,8.545.733,12.23,1.053-.476-.91-.973-1.81-1.495-2.691-1.155-.031-1.932-.011-2.649.074-.99.116-2.696-.166-3.914.036-1.216.2-2.74.263-3.719.272-.979.009-1.827-.187-2.373-.133Z"/>
    <path class="cls-2" d="m40.159,21.74s5.023.973,7.372.973h5.023c1.135,0,2.754.566,4.375.646,1.621.082,5.429-.08,5.429-.08,0,0,7.372-.566,9.884-.891,2.512-.324,4.052-.162,6.157-.324,2.106-.162,2.431-.08,4.618-.08s2.917.323,4.861.323,2.35.081,4.456.081,2.674-.244,3.321-.244,1.459,0,2.107-.16c.647-.164-1.216-.568-1.216-.568h-2.593c-.323,0-.648,0-1.296-.081-.648-.081-1.944-.081-1.944-.081,0,0-8.67-.648-8.912-.648h-9.642c-.972,0-5.752,1.539-8.183,1.459-2.43-.08-7.94-.972-12.963-.972s-10.856.647-10.856.647Z"/>
    <g>
      <path class="cls-6" d="m116.193,50.939c-1.859-.157-4.643-.391-4.759-.388-.174.008-6.207.224-6.904.247-.697.024-4.055,1.94-5.8,1.905-1.744-.031-5.727-.929-9.323-.8-3.598.128-7.747,1.03-7.747,1.03,0,0,3.637,1.003,5.318.943,1.683-.06,2.787-.101,3.597-.128.814-.03,1.997.59,3.162.644,1.163.054,3.884-.233,3.884-.233,0,0,5.255-.85,7.04-1.288,1.787-.443,2.895-.294,4.397-.536,1.501-.241,1.735-.155,3.302-.211,1.567-.057,2.104.303,3.496.253.183-.007.346-.01.497-.013-.048-.477-.101-.953-.16-1.426Z"/>
      <path class="cls-6" d="m14.394,50.097s5.024.973,7.374.973h5.022c1.134,0,2.755.567,4.375.647,1.62.082,5.428-.08,5.428-.08,0,0,7.373-.567,9.885-.892s4.051-.162,6.157-.324c2.106-.163,2.431-.081,4.618-.081s2.916.324,4.86.324,2.351.081,4.457.081,2.673-.243,3.321-.243,1.459,0,2.106-.162c.649-.162-1.216-.567-1.216-.567h-2.592c-.324,0-.648,0-1.296-.081-.649-.081-1.944-.081-1.944-.081,0,0-8.669-.647-8.913-.647h-9.641c-.973,0-5.752,1.539-8.183,1.458-2.431-.081-7.94-.973-12.963-.973s-10.858.648-10.858.648Z"/>
      <path class="cls-6" d="m62.976,69.137c1.347,0,1.795.323,2.991.323s1.447.081,2.744.081,1.644-.243,2.044-.243.898,0,1.298-.161c.398-.162-.749-.567-.749-.567h-1.596c-.2,0-.398,0-.798-.082-.398-.08-1.197-.08-1.197-.08,0,0-5.336-.648-5.485-.648h-5.935c-.599,0-3.541,1.539-5.036,1.458-1.497-.08-4.889-.972-7.98-.972s-6.683.648-6.683.648c0,0,3.092.974,4.538.974h3.092c.698,0,1.697.565,2.694.647.998.08,3.34-.082,3.34-.082,0,0,4.538-.565,6.084-.891,1.548-.324,2.494-.162,3.79-.324,1.297-.162,1.497-.08,2.844-.08Z"/>
    </g>
    <path class="cls-2" d="m70.036,92.254c2.767-.163,3.191-.082,6.065-.082s3.83.324,6.385.324,3.084.081,5.851.081,3.513-.243,4.364-.243,1.914,0,2.766-.162-1.595-.567-1.595-.567h-3.406c-.427,0-.851,0-1.702-.08-.853-.082-2.555-.082-2.555-.082,0,0-11.384-.647-11.705-.647h-12.66c-1.278,0-7.556,1.539-10.748,1.459-3.193-.082-10.429-.974-17.026-.974s-14.257.648-14.257.648c0,0,6.598.973,9.683.973h6.598c1.488,0,3.616.567,5.745.647,2.128.082,7.129-.08,7.129-.08,0,0,9.683-.567,12.982-.892,3.299-.323,5.32-.162,8.087-.323Z"/>
    <path class="cls-2" d="m111.046,77.215c-2.043.211-3.117.374-4.078.64-.96.266-2.69.246-3.862.63-1.171.385-2.668.677-3.634.833-.967.159-1.833.096-2.366.23-.536.137-2.456.667-4.058,1.072-1.604.406-3.431.607-3.431.607,0-.001.431-.007,1.073-.019,1.785-.028,5.202-.085,5.52-.101.432-.024,3.004-.48,3.004-.48,0,0,10.84-.726,13.383-.894.366-.928.71-1.867,1.03-2.819-.959.115-1.885.226-2.581.299Z"/>
    <path class="cls-2" d="m33.849,105.519c.977-.056,1.833.1,2.377.022.546-.078,2.512-.402,4.148-.637,1.636-.234,3.475-.24,3.475-.24,0,0-.429-.038-1.069-.095-1.778-.161-5.181-.468-5.497-.483-.434-.025-3.039.156-3.039.156,0,0-8.945-.35-12.502-.493,1.106.894,2.248,1.747,3.42,2.56.393-.03.743-.073,1.077-.129.982-.162,2.702.043,3.907-.215,1.206-.26,2.726-.392,3.704-.445Z"/>
  </g>
  <g>
    <path class="cls-1" d="m105.83,24.49c-17.743,25.597-54.193,70.751-91.377,72.257,10.691,12.203,26.381,19.92,43.881,19.92,32.216,0,58.333-26.117,58.333-58.333,0-12.622-4.023-24.298-10.837-33.844Z"/>
    <path class="cls-1" d="m116.62,56.495c-18.48,23.222-51.932,54.364-94.705,47.392,9.983,7.99,22.639,12.78,36.419,12.78,32.216,0,58.333-26.117,58.333-58.333,0-.616-.027-1.227-.047-1.839Z"/>
  </g>
  <path class="cls-4" d="m83.25,15.983c8.643,14.709-1.201,36.532-21.99,48.746-20.787,12.216-44.644,10.191-53.285-4.516C-.667,45.506,9.178,23.681,29.964,11.467,50.749-.746,74.606,1.274,83.25,15.983Z"/>
  <path class="cls-3" d="m64.151,14.076c5.16,8.785-1.634,22.356-15.176,30.313-13.541,7.956-28.702,7.285-33.862-1.5-5.164-8.785,1.628-22.355,15.172-30.313,13.541-7.957,28.703-7.286,33.866,1.5Z"/>
</svg>