<?xml version="1.0" encoding="UTF-8"?>
<svg xmlns="http://www.w3.org/2000/svg" viewBox="0 0 133.543 75.1">
  <defs>
    <style>
      .cls-1, .cls-2, .cls-3, .cls-4, .cls-5, .cls-6 {
        mix-blend-mode: screen;
      }

      .cls-1, .cls-7 {
        fill: #ffb176;
      }

      .cls-2, .cls-8, .cls-6 {
        fill: #ff8e38;
      }

      .cls-3 {
        fill: #ffdcc2;
      }

      .cls-9, .cls-4 {
        opacity: .6;
      }

      .cls-9, .cls-10, .cls-11, .cls-12, .cls-13, .cls-14, .cls-15 {
        mix-blend-mode: multiply;
      }

      .cls-9, .cls-16, .cls-11, .cls-14 {
        fill: #dc5f00;
      }

      .cls-17 {
        isolation: isolate;
      }

      .cls-4 {
        fill: #f16800;
      }

      .cls-18 {
        fill: #ff7409;
      }

      .cls-10 {
        fill: #8b3c00;
      }

      .cls-10, .cls-12, .cls-13, .cls-14, .cls-15 {
        opacity: .3;
      }

      .cls-11 {
        opacity: .2;
      }

      .cls-6 {
        opacity: .4;
      }

      .cls-13 {
        fill: #723100;
      }

      .cls-15 {
        fill: #c25400;
      }

      .cls-19 {
        fill: #f96c00;
      }
    </style>
  </defs>
  <g class="cls-17">
    <g id="Layer_1" data-name="Layer 1">
      <g>
        <g>
          <g>
            <rect class="cls-19" x="0" width="133.543" height="75.118"/>
            <path class="cls-18" d="m124.928,35.808c-2.546.059-5.094.032-7.638-.229-2.518-.258-5.023-.703-7.546-.807-9.186-.38-18.344,1.265-27.508,2.262-4.666.507-18.282.754-22.95,1.688-17.152,3.43-28.484-4.41-33.199-4.458-8.695-.087-17.392-.238-26.087-.017v31.784s2.472-.017,6.688-.047c1.877-.115,3.723-.51,5.587-1.538,3.928-2.167,7.88-3.988,11.841-3.802,3.56.166,7.119,1.07,10.68,1.336,3.563.267,7.125.352,10.689.348,7.147-.006,14.297-.447,21.445.037,7.156.485,14.311,1.615,21.469,1.61,3.517-.003,7.008.327,10.518,1.338.255.073.51.128.766.176,8.875-.016,14.714.004,15.06.08.755.166,1.511.319,2.268.462h16.533v-30.647c-2.871.164-5.742.358-8.615.424Z"/>
            <path class="cls-4" d="m124.928,19.489c-2.546.07-7.991-.317-8.168-.342-.614.055-1.229.101-1.845.143-2.829.19-5.666.284-8.49.542-1.523.14-3.044.315-4.551.581-1.273.224-2.525.445-3.818.523-2.027.123-4.057.071-6.086.066-2.055-.004-4.087.131-6.134.294-4.145.332-8.287.699-12.415,1.204-4.157.509-8.262,1.211-12.451,1.417-2.9.142-5.807.156-8.709.06-2.894.132-5.58-.094-8.054-.529-12.433-1.173-24.663-3.816-36.963-5.956-2.415.016-4.83.054-7.244.127v38.043s8.386-1.674,10.17-2.689c1.265-.72,2.541-1.445,3.898-1.98,1.435-.566,2.946-.846,4.453-1.159,3.397-.706,6.86-1.369,10.341-1.436,3.614-.071,7.227.405,10.788.968,4.032.637,8.059,1.418,12.138,1.689.32.021.642.038.963.053,2.253-.055,4.506-.105,6.758-.103,1.395-.09,2.789-.213,4.181-.35,3.912-.385,7.844-.828,11.782-.642,3.826.181,7.719.536,11.491,1.207.994.177,1.985.376,2.966.616.925.227,1.835.528,2.772.701,2.027.374,4.085.367,6.139.32,1.973-.045,3.947-.101,5.91.143,1.229.153,2.448.349,3.673.523,2.668,0,5.341.219,7.981.558,1.447.186,2.888.417,4.327.653,1.389.228,4.122.928,4.126.928h8.686V18.981c-2.871.195-5.742.43-8.615.508Z"/>
            <path class="cls-7" d="m1.963,6.727c1.281-.042,2.556-.28,3.797-.595,1.322-.337,2.633-.715,3.987-.912,1.325-.193,2.697-.145,4.034-.172,5.989-.121,11.979-.119,17.97-.101,4.6.014,9.22.15,13.816-.042,4.505-.188,8.988-.683,13.488-.946,4.512-.263,8.952-.083,13.449.336,2.226.207,4.452.431,6.686.56,2.269.13,4.538.121,6.81.117,9.227-.018,18.454-.105,27.681-.134,2.229-.007,4.492-.121,6.718.016,1.876.115,3.719.487,5.543.924,1.303.312,2.621.665,3.951.97h3.649V0H0v6.738c.654-.022,1.314.01,1.963-.011Z"/>
            <g>
              <path class="cls-14" d="m131.936,12.329c-.167-.657-1.275-.802-1.689-.909-2.477-.639-5.03-.691-7.549-.695-3.226-.004-6.45.182-9.675.035-1.588-.072-3.182-.209-4.754-.51-.731-.14-1.455-.333-2.172-.568-.696-.229-1.366-.57-2.057-.822-.002-.002-.002-.005-.004-.006-.394-.349-.885-.374-1.347-.339-.04.003-.079.005-.119.007-.32-.027-.641-.024-.964.014-.378-.005-.757-.015-1.132-.002-1.429.05-2.873.051-4.296-.162-.65-.098-1.281-.3-1.926-.45-.655-.151-1.291.024-1.93.226-.692.219-1.366.559-2.084.56-.781,0-1.562,0-2.343,0-1.432.001-2.841-.031-4.256.302-1.461.344-2.861,1.01-4.311,1.407-3.026.827-6.114.568-9.182.673-.57.02-1.142.186-1.674.452-.231.117-.465.184-.703.27-.346.124-.561.16-.893-.062-.205-.137-.509.291-.406.558.434,1.131,1.352,1.606,2.234,1.913,1.165.404,2.351.607,3.55.752,4.016.488,4.73,1.001,8.634,2.321,15.184,5.133,30.497,1.525,39.39.582.751-.079,1.499-.254,2.254-.33,1.4-.14,2.812-.146,4.061-1.079.295-.221.601-.586.933-.701.303-.105.599-.251.892-.399.282-.144.559-.308.831-.482.293-.188.668-.233.978-.383.574-.276,1.991-1.062,1.707-2.172Z"/>
              <path class="cls-14" d="m126.197,12.999c-.133-.382-1.006-.466-1.333-.528-1.952-.371-3.964-.401-5.95-.403-2.542-.003-5.084.105-7.626.02-1.252-.042-2.508-.122-3.747-.296-.576-.081-1.147-.193-1.713-.33-.548-.133-1.077-.331-1.621-.478,0,0,0-.003-.003-.003-.309-.203-.697-.217-1.061-.197-.031.002-.062.004-.093.004-.253-.016-.506-.014-.76.008-.299-.003-.597-.009-.893-.001-1.126.028-2.266.029-3.387-.094-.513-.057-1.01-.174-1.518-.261-.517-.088-1.018.014-1.521.131-.546.127-1.077.324-1.643.325-.616,0-1.231,0-1.847,0-1.129,0-2.239-.017-3.354.175-1.152.199-2.256.587-3.398.816-2.385.48-4.819.331-7.237.391-.45.012-.899.108-1.319.263-.183.067-.366.107-.555.157-.271.072-.441.092-.703-.036-.161-.08-.401.168-.32.324.342.657,1.065.933,1.761,1.11.919.234,1.854.352,2.799.436,3.165.283,3.729.581,6.806,1.347,11.969,2.98,24.039.885,31.05.338.592-.046,1.182-.147,1.776-.191,1.103-.082,2.217-.085,3.201-.626.232-.128.474-.34.734-.407.24-.06.473-.145.703-.232.223-.083.441-.178.655-.279.23-.109.527-.136.77-.223.453-.161,1.569-.617,1.347-1.261Z"/>
              <path class="cls-15" d="m114.776,14.511c-.074-.118-.561-.144-.742-.163-1.089-.115-2.21-.124-3.316-.125-1.417,0-2.833.033-4.25.006-.697-.013-1.397-.038-2.088-.091-.321-.025-.639-.06-.954-.102-.306-.041-.6-.102-.903-.147,0,0,0,0,0,0-.173-.063-.39-.067-.592-.062-.017,0-.035,0-.053.001-.141-.005-.281-.004-.423.002-.166-.001-.332-.003-.497,0-.628.009-1.263.009-1.887-.029-.286-.018-.564-.054-.847-.081-.287-.027-.566.004-.848.041-.304.039-.6.1-.915.1-.344,0-.686,0-1.029,0-.629,0-1.248-.006-1.869.054-.642.062-1.257.182-1.893.253-1.329.149-2.686.102-4.033.121-.251.003-.501.034-.734.082-.103.02-.205.033-.309.048-.152.023-.247.029-.393-.011-.09-.024-.224.052-.179.1.19.203.594.289.981.344.512.073,1.033.109,1.559.135,1.764.087,2.077.18,3.792.417,6.67.921,13.395.274,17.302.104.33-.014.659-.045.99-.059.615-.025,1.235-.026,1.783-.193.13-.04.265-.105.41-.126.133-.019.263-.045.392-.072.124-.026.245-.055.365-.087.128-.033.293-.041.429-.068.253-.05.875-.191.751-.391Z"/>
            </g>
            <path class="cls-16" d="m130.863,3.493c-.364-.286-.982-.114-1.396-.03-.337-.012-.681-.048-.999-.054-.715-.012-1.431-.01-2.145-.01-1.412.002-2.814-.01-4.227.049-1.467.062-2.924.053-4.386-.092-.624-.062-1.248-.066-1.874-.094-.307-.014-.61-.016-.917.017-.352.038-.678.199-1.035.198-1.484-.001-2.951.03-4.432.127-.617.04-1.245.083-1.863.086-.266.002-.503.085-.76.148-.35.085-.724.077-1.08.091-.632.024-1.278.11-1.907.181-.683.077-1.31.392-1.975.549-1.325.314-2.717.226-4.061.31-.646.041-1.299.182-1.939.284-.455.072-.948.159-1.293.522-.224.236-.339.653.009.832.477.245,1.167.193,1.686.212.656.024,1.31-.046,1.967-.043.717.002,1.434-.004,2.149-.043,1.407-.076,2.757-.315,4.163-.042.651.127,1.287.348,1.932.503.689.165,1.394.215,2.098.203,1.433-.023,2.846-.388,4.254-.632,1.449-.252,2.897-.261,4.359-.199,1.458.062,2.941.216,4.399.077,1.287-.123,2.488-.542,3.742-.845,1.103-.267,2.255.172,3.367-.054.349-.071.725-.26.945-.576.06-.088.209-.473.284-.505.236-.101.524-.16.742-.305.268-.178.509-.616.192-.864Z"/>
            <path class="cls-14" d="m128.553,49.566c-1.033-.309-1.96-.85-2.835-1.473-.899-.64-1.761-1.349-2.721-1.898-1.06-.606-2.239-.985-3.448-1.156-1.338-.19-2.702-.226-4.024-.524-1.311-.296-2.521-.864-3.725-1.448-1.209-.586-2.418-1.208-3.718-1.571-1.485-.416-3.037-.533-4.572-.601-1.499-.066-2.969-.183-4.458-.347-1.245-.139-2.476-.14-3.709.098-1.246.24-2.474.59-3.731.77-1.219.172-2.452.26-3.685.23-.929-.021-1.866-.096-2.791-.244-3.986-.225-7.678-2.059-11.538-2.981-9.182-2.193-18.774-1.532-28.124-1.413-1.897.024-3.796.035-5.693-.004-1.932-.04-3.854-.193-5.774.094-3.831.572-7.413,2.171-10.766,4.058-1.642.924-3.196,2.024-4.852,2.914-1.548.833-3.173,1.531-4.875,1.981-1.78.469-3.593.68-5.416.776-1.303.214-2.605.427-3.859.839,3.29,1.401,7.013,1.449,10.513,1.878,1.77.216,3.479.543,5.186,1.062,2.133.649,4.33,1.02,6.547,1.229,2.028.192,4.064.281,6.097.427,1.822.131,3.621.396,5.436.586,3.579.376,7.188.52,10.786.413,3.648-.107,7.103.802,10.68.049,3.707-.78,25.468-2.342,27.48-2.088,2,.253,4.684-2.343,6.698-2.386,3.945-.084,7.866-.583,11.809-.706,1.787-.056,3.485.04,5.256.252,4.421.529,8.824,1.2,13.253,1.665,1.975.208,3.963.407,5.95.418.633.003,1.28.001,1.907-.099-1.101-.241-2.207-.478-3.284-.8Z"/>
            <path class="cls-14" d="m131.428,27.53c-.657-.956-2.169-1.492-3.313-1.949-1.394-.558-2.678-1.263-3.981-1.949-1.305-.686-2.469-1.168-4.06-.97-.695.086-1.377.377-2.005.638-.629.118-1.251.288-1.878.486-.8.253-1.577.55-2.355.844-.752.284-1.575.465-2.364.666-1.537.394-3.073.814-4.4,1.582-1.332.771-2.5,1.678-3.428,2.781-.395.469-.694.966-.796,1.534-.101.574.211,1.003.663,1.413.969.878,2.468,1.428,3.701,2.007.792.372,1.583.746,2.372,1.121.744.352,1.739.405,2.578.418.863.014,1.727-.1,2.58-.197.965-.111,1.933-.181,2.906-.232,1.731-.09,3.46-.192,5.156-.508.748-.14,1.475-.325,2.18-.573.767-.269,1.329-.75,1.897-1.239,1.072-.922,2.153-1.81,3.273-2.693.996-.787,2.067-2.027,1.274-3.179Z"/>
            <path class="cls-6" d="m129.857,27.946c-.524-.791-1.729-1.236-2.642-1.614-1.113-.462-2.136-1.046-3.175-1.614-1.04-.569-1.968-.968-3.236-.804-.554.072-1.098.313-1.598.529-.502.097-.998.238-1.498.402-.638.209-1.257.455-1.877.699-.6.235-1.256.385-1.885.552-1.226.326-2.451.674-3.509,1.31-1.062.638-1.993,1.39-2.732,2.303-.315.389-.554.801-.635,1.27-.081.477.168.831.529,1.171.771.729,1.967,1.183,2.95,1.663.632.308,1.262.617,1.892.927.593.292,1.386.335,2.055.347.688.011,1.377-.083,2.057-.164.77-.092,1.542-.15,2.317-.192,1.38-.075,2.758-.159,4.11-.421.597-.116,1.175-.269,1.737-.475.611-.223,1.061-.621,1.514-1.026.854-.764,1.717-1.499,2.608-2.231.794-.652,1.648-1.68,1.017-2.634Z"/>
            <path class="cls-7" d="m74.509,72.29c-2.064.043-4.114.094-6.179-.016-2.041-.107-4.076-.291-6.111-.476-4.074-.37-8.177-.742-12.269-.448-4.224.304-8.434.717-12.663.971-4.197.252-8.407.369-12.601.668-4.875.346-9.671,1.395-14.498,2.128h103.655c-4.944-.437-9.894-.812-14.849-1.105-8.161-.483-16.295-1.896-24.486-1.723Z"/>
            <path class="cls-9" d="m129.135,3.913c-.288-.167-.776-.067-1.103-.017-.266-.007-.537-.028-.788-.031-.564-.008-1.13-.006-1.694-.006-1.115.001-2.224-.006-3.338.028-1.159.037-2.31.031-3.464-.054-.493-.035-.986-.038-1.48-.055-.242-.008-.482-.009-.725.01-.277.022-.535.116-.817.116-1.172-.001-2.33.018-3.5.073-.487.024-.982.048-1.471.051-.21.001-.397.049-.6.085-.276.049-.571.045-.853.053-.499.014-1.01.064-1.507.106-.539.044-1.035.228-1.561.32-1.046.183-2.146.131-3.206.181-.511.024-1.025.106-1.532.166-.358.042-.749.093-1.02.304-.177.138-.268.381.007.485.377.143.921.113,1.331.124.52.015,1.036-.026,1.555-.025.565.002,1.132-.002,1.696-.024,1.112-.044,2.178-.184,3.289-.024.514.074,1.016.203,1.525.293.544.096,1.1.125,1.656.118,1.131-.014,2.247-.226,3.359-.369,1.144-.147,2.288-.152,3.443-.116,1.15.036,2.322.126,3.474.044,1.017-.071,1.966-.316,2.956-.492.871-.155,1.781.1,2.658-.032.275-.041.573-.151.747-.336.048-.051.165-.275.225-.293.186-.059.414-.094.586-.178.211-.104.402-.359.152-.504Z"/>
            <path class="cls-6" d="m123.63,25.866c-.041-.054-.086-.108-.133-.161-.395-.442-1.174-.459-1.721-.439-.602.021-1.184.203-1.756.37-.742.215-1.497.38-2.233.616-1.064.34-1.739,1.203-2.273,2.14-.53.934-.971,2.133-.638,3.197.362,1.155,1.933,1.811,2.969,2.156,1.214.404,2.621.554,3.881.309,1.152-.225,2.162-.852,2.982-1.677.832-.839,1.572-1.81,1.605-3.037.045-1.734-1.365-2.666-2.684-3.472Z"/>
            <path class="cls-2" d="m122.702,27.022c-.029-.038-.061-.076-.093-.112-.277-.31-.822-.321-1.204-.308-.422.015-.829.142-1.229.259-.519.151-1.048.266-1.563.431-.744.238-1.217.842-1.591,1.498-.371.653-.68,1.493-.446,2.238.254.809,1.353,1.267,2.078,1.509.849.283,1.834.388,2.716.216.807-.158,1.513-.596,2.087-1.174.583-.587,1.101-1.267,1.124-2.126.031-1.213-.956-1.866-1.878-2.43Z"/>
            <path class="cls-9" d="m95.662,4.621c-.766-.401-1.527-.457-2.342-.335-1.165.176-2.378-.074-3.551-.185-2.141-.202-4.288-.134-6.43-.336-.89-.084-1.772-.123-2.66.003-.402.057-.801.152-1.199.257-.03,0-.06,0-.091-.001-1.3-.023-2.556-.665-3.866-.424-1.435.263-2.876.502-4.321.624-1.271-.194-2.535-.454-3.82-.44-1.08.012-2.137.288-3.226.252-.598-.019-1.19-.113-1.781-.228-.183-.036-.371-.051-.56-.058-1.021.023-2.042.017-3.063.008-2.346-.019-4.643.083-6.974.341-1.113.123-2.281.262-3.399.111-1.21-.163-2.424-.29-3.639-.401-2.29-.21-4.586-.374-6.867-.669-1.479-.191-2.983-.6-4.479-.552-1.439.047-2.831.395-4.241.658-2.843.53-5.766.161-8.597.732-2.977.601-5.974,1.107-9.016,1.198-.679.02-1.33.002-1.989.189-.531.151-1.05.342-1.571.524-.251.088-.513.183-.78.269,1.89.315,3.744.39,5.614.078.719.114,1.441.087,2.167.218.436.079.91.017,1.352.022.631.007,1.26.081,1.889.147,2.188.23,4.356.326,6.508.923,1.132.314,2.242.734,3.358,1.111.044.003.089.008.134.011,1.916.148,3.766.396,5.65.775,1.145.23,2.281.419,3.451.326,1.109-.087,2.202-.289,3.296-.487,2.117-.384,4.252-.659,6.378-.99,1.568-.244,3.135-.504,4.691-.818,1.477-.298,2.916-.662,4.432-.701,1.526-.039,3.046.101,4.561.26,1.492.157,3.019.384,4.521.315,1.556-.073,3.079-.379,4.616-.61,1.449-.217,2.877-.292,4.342-.225,1.16.052,2.318.144,3.477.216,1.402-.35,2.776-.858,4.221-.858,2.196,0,4.389.187,6.585-.01,1.263-.113,2.525-.227,3.789-.34.517-.046,1.006-.285,1.52-.379.545-.1,1.095-.031,1.629.122.216.062.539-.51.281-.644Z"/>
            <path class="cls-9" d="m17.9,4.928c1.229.176,2.427.613,3.684.534,1.193-.074,2.374-.418,3.574-.394,1.2.024,2.411.208,3.6.371,2.532.347,5.05.809,7.593,1.075,1.564.164,3.116.194,4.687.239,1.547.044,3.095.194,4.643.149,3.082-.09,5.965-1.38,9.057-1.436,1.562-.029,3.116.111,4.674.197,1.57.087,3.101.017,4.668-.074,2.715-.158,5.461-.117,8.146-.578-1.814-.152-3.604-.572-5.425-.586-2.217-.016-4.388.423-6.605.139-1.095-.141-2.212-.424-3.32-.372-1.117.053-2.21.276-3.308.472-2.231.399-4.415.329-6.664.111-1.577-.153-3.152-.35-4.735-.421-1.548-.071-3.096-.119-4.642-.204-1.542-.086-3.079-.209-4.61-.414-1.603-.215-3.148-.477-4.774-.412-1.602.064-3.189.276-4.785.41-1.392.117-2.797.177-4.195.192-2.082.394-4.177.716-6.292.859.455.006.91.011,1.365.015,1.209.012,2.468-.045,3.667.126Z"/>
            <g>
              <path class="cls-6" d="m22.215,31.833c-2.004-.688-6.249-.878-7.968.087-.147.083-.282.169-.409.255-.348.148-.641.287-.831.375-2.145,1.006-2.983,2.79-1.07,3.947,1.724,1.043,5.094,1.683,7.99,1.773,1.445.045,2.559-.217,3.39-.627.74-.126,1.281-.564,1.273-.858,0-.026-.004-.054-.006-.08.447-.494.683-1.03.74-1.486.16-1.245-.782-2.586-3.109-3.385Z"/>
              <path class="cls-2" d="m21.656,33.319c-.988-.339-3.082-.433-3.93.044-.073.041-.139.083-.201.126-.172.074-.316.142-.41.186-1.059.496-1.472,1.375-.528,1.947.85.514,2.513.829,3.94.873.713.022,1.262-.107,1.672-.309.365-.062.632-.278.628-.423,0-.013-.002-.026-.003-.039.221-.244.336-.508.365-.733.079-.614-.386-1.275-1.533-1.67Z"/>
            </g>
            <path class="cls-8" d="m27.771,24.44c-1.01-.347-3.15-.442-4.016.045-.075.041-.143.085-.207.128-.175.074-.323.144-.419.189-1.081.507-1.504,1.406-.54,1.989.869.526,2.568.848,4.028.893.728.023,1.29-.109,1.708-.315.373-.063.646-.285.642-.433,0-.013-.002-.027-.002-.041.225-.249.343-.519.373-.749.081-.627-.394-1.304-1.567-1.707Z"/>
            <g class="cls-5">
              <path class="cls-8" d="m108.559,21.917c-.74-.254-2.308-.324-2.942.033-.055.03-.104.062-.151.094-.128.054-.237.106-.308.138-.792.372-1.102,1.03-.395,1.458.637.386,1.882.622,2.952.654.534.017.944-.08,1.252-.231.273-.046.473-.208.471-.317,0-.009-.002-.02-.003-.029.165-.183.252-.38.273-.549.059-.46-.289-.955-1.148-1.251Z"/>
            </g>
            <path class="cls-8" d="m8.679,59.456c-.687-.291-2.144-.371-2.733.036-.051.035-.097.072-.141.108-.119.062-.22.121-.285.158-.735.425-1.023,1.179-.367,1.667.591.441,1.748.711,2.741.749.496.019.878-.092,1.163-.265.254-.053.439-.238.436-.363,0-.011-.002-.021-.002-.033.153-.209.234-.436.254-.628.055-.526-.269-1.093-1.066-1.43Z"/>
            <path class="cls-8" d="m23.064,54.425c-.687-.291-2.143-.371-2.733.037-.051.035-.097.07-.141.107-.119.062-.22.121-.285.158-.735.426-1.023,1.179-.367,1.668.592.44,1.748.71,2.741.748.496.02.878-.092,1.163-.265.254-.053.439-.238.437-.362,0-.012,0-.023-.002-.033.153-.21.234-.436.255-.629.055-.525-.269-1.092-1.067-1.43Z"/>
            <g>
              <path class="cls-2" d="m122.466,27.806c-.605-.257-1.891-.327-2.41.033-.045.03-.086.062-.124.095-.105.055-.194.106-.252.14-.648.374-.902,1.039-.323,1.471.52.388,1.541.626,2.417.66.438.017.774-.081,1.025-.233.225-.047.389-.211.386-.32,0-.009,0-.02,0-.03.135-.184.206-.384.224-.554.049-.464-.236-.963-.941-1.261Z"/>
              <path class="cls-2" d="m122.297,28.36c-.299-.127-.933-.161-1.188.016-.022.015-.042.031-.062.047-.052.027-.096.053-.124.069-.32.185-.445.513-.159.726.257.191.76.309,1.191.325.216.009.382-.04.507-.115.11-.023.19-.104.189-.158,0-.005-.001-.009-.001-.015.066-.091.102-.19.11-.273.024-.229-.116-.475-.464-.622Z"/>
            </g>
            <path class="cls-14" d="m16.92,13.179c-.869.059-1.947.011-2.741.346-.995.42-.131,1.435.43,1.872.732.571,1.7.94,2.631,1.243,1.153.376,2.345.672,3.546.928,2.169.463,4.372.812,6.583,1.115,3.498.48,6.895,1.381,10.379,1.928,1.884.295,3.792.52,5.712.553,1.726.03,3.439-.112,5.157-.227,3.474-.233,6.955-.478,10.398-.936,1.628-.216,3.254-.471,4.848-.822,1.228-.27,2.705-.545,3.711-1.225,1.495-1.01-1.01-1.888-1.978-2.213-1.752-.589-3.585-.984-5.397-1.421-3.162-.762-6.213-1.806-9.376-2.569-3.444-.831-6.883-1.239-10.476-1.104-3.705.14-7.423.074-11.122.315-.955.062-1.904.155-2.852.266-1.805.38-3.608.768-5.405,1.17-1.34.3-2.658.686-4.048.781Z"/>
            <path class="cls-14" d="m22.7,13.789c-.674.046-1.509.009-2.125.269-.771.326-.101,1.112.333,1.451.567.443,1.317.729,2.04.964.893.291,1.817.521,2.748.719,1.683.359,3.39.63,5.103.865,2.712.372,5.347,1.07,8.047,1.494,1.46.229,2.939.403,4.428.429,1.338.023,2.666-.087,3.998-.176,2.693-.18,5.392-.37,8.061-.725,1.263-.168,2.522-.365,3.759-.638.951-.209,2.097-.423,2.876-.949,1.159-.783-.783-1.464-1.533-1.716-1.357-.457-2.778-.763-4.185-1.102-2.451-.591-4.816-1.4-7.268-1.992-2.671-.644-5.336-.96-8.122-.856-2.872.108-5.754.058-8.622.244-.74.048-1.477.121-2.211.206-1.4.294-2.797.595-4.191.907-1.038.233-2.06.532-3.138.605Z"/>
            <path class="cls-14" d="m26.943,14.535c-.436.029-.976.005-1.373.173-.499.21-.066.719.216.938.366.286.851.471,1.317.623.578.188,1.175.336,1.776.465,1.087.232,2.191.407,3.298.559,1.753.24,3.455.691,5.2.965.943.148,1.899.26,2.861.277.864.015,1.723-.056,2.583-.114,1.74-.117,3.484-.239,5.209-.469.816-.108,1.631-.236,2.429-.412.615-.135,1.355-.273,1.859-.613.749-.506-.506-.945-.99-1.109-.878-.295-1.796-.493-2.704-.712-1.584-.382-3.112-.905-4.697-1.287-1.726-.416-3.448-.621-5.248-.553-1.855.07-3.719.038-5.571.158-.48.031-.954.078-1.429.133-.904.19-1.808.385-2.709.587-.671.15-1.331.343-2.027.391Z"/>
            <path class="cls-14" d="m30.429,42.053c-1.053.065-2.36.013-3.324.384-1.206.465-.158,1.586.521,2.07.889.633,2.061,1.041,3.19,1.375,1.399.415,2.843.743,4.299,1.026,2.631.512,5.302.898,7.982,1.234,4.242.531,8.361,1.526,12.586,2.132,2.283.327,4.597.574,6.925.612,2.093.032,4.17-.124,6.253-.251,4.213-.258,8.434-.529,12.608-1.035,1.975-.239,3.946-.522,5.879-.91,1.488-.299,3.279-.603,4.499-1.353,1.812-1.117-1.225-2.089-2.398-2.449-2.123-.652-4.346-1.089-6.544-1.572-3.834-.843-7.533-1.997-11.368-2.842-4.177-.919-8.346-1.371-12.702-1.221-4.493.154-9,.082-13.485.348-1.158.069-2.31.173-3.459.295-2.188.42-4.374.848-6.554,1.295-1.624.332-3.223.758-4.908.862Z"/>
            <path class="cls-14" d="m37.255,43.141c-.672.042-1.506.008-2.121.245-.769.296-.101,1.012.333,1.32.565.402,1.315.664,2.035.877.893.266,1.813.475,2.743.655,1.679.327,3.383.573,5.094.788,2.707.339,5.336.975,8.031,1.359,1.457.209,2.934.368,4.419.391,1.335.022,2.66-.078,3.989-.16,2.688-.164,5.382-.336,8.046-.66,1.26-.152,2.517-.332,3.751-.58.95-.192,2.094-.385,2.871-.864,1.157-.713-.781-1.333-1.53-1.562-1.355-.415-2.773-.694-4.176-1.003-2.446-.538-4.808-1.274-7.254-1.814-2.665-.587-5.326-.875-8.106-.779-2.867.099-5.743.053-8.605.223-.739.044-1.474.109-2.206.187-1.398.27-2.792.543-4.184.827-1.035.212-2.056.484-3.131.551Z"/>
            <path class="cls-14" d="m38.618,43.423c-.425.025-.953.004-1.342.154-.486.188-.064.64.211.836.358.254.832.419,1.287.555.564.167,1.146.299,1.734.414,1.062.206,2.14.361,3.221.498,1.712.214,3.375.615,5.079.859.921.133,1.854.233,2.795.248.844.013,1.683-.051,2.522-.102,1.7-.104,3.403-.214,5.088-.418.797-.097,1.593-.211,2.372-.367.601-.121,1.323-.244,1.815-.547.731-.45-.494-.842-.968-.988-.856-.263-1.754-.439-2.641-.634-1.547-.34-3.04-.806-4.587-1.147-1.686-.371-3.368-.554-5.126-.493-1.812.062-3.632.033-5.441.141-.468.027-.932.069-1.395.119-.884.169-1.765.342-2.644.522-.655.134-1.301.306-1.98.349Z"/>
            <path class="cls-14" d="m96.204,56.081c-.35-.81-1.509-1.105-2.319-1.284-2.119-.467-4.313-.033-6.425-.544-1.082-.262-2.014-.812-3.046-1.19-1.033-.377-2.118-.556-3.224-.602-1.321-.055-2.657.119-3.958.422-.72.076-1.435.192-2.139.348-1.177.261-2.356.45-3.554.618-1.176.166-2.366.193-3.507.541-.714.218-1.739.611-2.022,1.337-.322.825.84,1.044,1.469,1.155.504.09,1.028.089,1.539.104.625.017,1.217.1,1.83.198,1.096.177,2.061.748,3.063,1.16.521.214,1.197.276,1.755.363.596.094,1.199.141,1.802.162,1.253.043,2.517-.082,3.771-.096,1.267-.014,2.534-.004,3.801-.04,1.284-.036,2.557-.203,3.839-.242,1.239-.038,2.436.182,3.666.249,1.049.057,2.191-.139,3.026-.777.604-.462.935-1.18.632-1.882Z"/>
            <path class="cls-14" d="m92.603,55.665c-.247-.525-1.065-.718-1.638-.834-1.497-.303-3.047-.021-4.539-.354-.764-.17-1.422-.526-2.15-.771-.73-.245-1.496-.361-2.276-.391-.934-.036-1.877.077-2.796.273-.508.05-1.014.125-1.511.227-.831.169-1.664.291-2.51.4-.831.107-1.672.125-2.477.352-.505.141-1.229.396-1.429.867-.228.535.593.678,1.037.751.356.058.727.058,1.087.066.441.011.859.065,1.293.129.773.114,1.456.485,2.164.753.368.139.845.18,1.239.236.421.06.847.091,1.272.104.885.028,1.777-.054,2.663-.061.896-.009,1.79-.004,2.685-.026.907-.023,1.806-.132,2.711-.157.876-.025,1.721.117,2.59.161.741.038,1.547-.089,2.138-.505.427-.299.66-.766.446-1.221Z"/>
            <path class="cls-11" d="m119.882,47.123c-1.347-.378-2.758-.528-4.079-.98-.568-.194-1.01-.413-1.501-.755-.498-.345-1.035-.587-1.626-.715-.587-.127-1.204-.133-1.801-.162-.697-.033-1.383-.134-2.065-.276-1.254-.263-2.474-.675-3.705-1.022-1.192-.336-2.436-.76-3.663-.37-.586.186-1.083.614-1.623.897-.507.267-1.068.44-1.612.611-1.28.402-2.688.434-3.925.966-.094.04-.269.185-.421.36,1.674.788,3.41.811,5.257.669.949-.072,1.886-.179,2.826.021.91.193,1.83.541,2.773.483.948-.058,1.881-.274,2.83-.334.938-.058,1.834-.013,2.739.247.574.164,1.142.35,1.707.54.156.019.312.034.469.049.716.066,1.433.014,2.146.067,1.457.111,2.816.6,4.293.567,1.257-.027,2.479.034,3.728.166.074.008.149.016.225.023-.951-.477-1.93-.76-2.973-1.052Z"/>
            <g>
              <path class="cls-14" d="m10.053,23.183c-1.216-.527-2.57-.476-3.839-.805-1.184-.307-2.277-.104-3.352.278-.443.332-.961.605-1.327,1.023-.222.253-.363.569-.063.836.4.358,1.746,1.055,5.145-.455.939-.417,2.733.05,3.436-.876Z"/>
              <path class="cls-14" d="m5.592,23.381c-.396-.172-.839-.156-1.254-.264-.388-.101-.745-.034-1.097.091-.145.108-.313.197-.434.334-.072.083-.119.186-.02.273.131.117.571.345,1.683-.149.307-.136.892.017,1.122-.286Z"/>
            </g>
            <path class="cls-1" d="m27.463,73.511c1.581.094,3.16.24,4.744.262,1.577.022,3.152-.092,4.722-.227,3.107-.267,6.203-.664,9.316-.869,1.562-.103,3.129-.165,4.695-.133,1.592.033,3.172.193,4.76.309,3.194.232,6.396.36,9.6.438,3.216.078,6.433.111,9.649.161,3.2.05,6.403.226,9.602.229,3.088.003,6.179-.208,9.264.024.825.061,1.648.155,2.473.233.04-.138.028-.272-.076-.359-.387-.328-1.07-.341-1.549-.429-.723-.133-1.433-.285-2.152-.425-1.504-.29-2.963-.798-4.472-1.054-1.518-.259-3.046-.448-4.565-.696-1.559-.255-3.091-.56-4.669-.675-1.544-.113-3.094-.082-4.64-.17-1.494-.085-2.994-.062-4.478-.254-1.465-.188-2.887-.236-4.363-.235-1.542.002-3.08-.017-4.616.105-1.591.128-3.14-.027-4.726-.08-1.556-.051-3.114.049-4.662.201-3.051.299-6.087.918-9.154,1.023-.732.025-1.478-.028-2.205.065-.736.092-1.474.185-2.211.275-1.505.185-3.013.322-4.52.481-3.055.32-6.129.53-9.142,1.136-.922.185-1.846.353-2.783.445-.105.012-.22.079-.323.176,2.153.104,4.332-.082,6.481.043Z"/>
            <g>
              <path class="cls-14" d="m12.633,69.66c-.229-.098-.477-.111-.729-.133-.101-.009-.193-.011-.28-.002-.043-.004-.088-.008-.134-.008-.241-.001-.533.245-.409.455.14.239.59.168.825.141.31-.037.578-.072.726-.336.015-.026.048-.097,0-.117Z"/>
              <path class="cls-14" d="m14.118,68.725c-.16-.003-.358.04-.477.138,0,0,0,0-.002,0-.017,0-.034,0-.052,0-.134-.01-.248.11-.244.221.005.156.25.143.373.119.08-.014.181-.056.261-.043.124.021.228-.039.301-.121.126-.141.049-.31-.16-.314Z"/>
              <path class="cls-14" d="m18.232,69.781c-.033-.238-.496-.252-.689-.253-.14-.001-.285.017-.43.043-.165-.015-.332-.018-.507.007-.238.034-.59.113-.752.285-.481.51.762.476,1.05.477.389.003,1.408-.009,1.328-.56Zm-.916.136c.068-.004.135-.004.204-.001-.074.008-.147.016-.222.022.006-.006.013-.013.018-.021Z"/>
              <path class="cls-14" d="m6.448,70.417c-.115-.096-.326-.123-.478-.13-.265-.011-.596-.019-.844.085-.117.021-.224.061-.307.147-.444.472.643.432.903.432.239,0,.404.002.602-.126.117-.076.259-.297.123-.408Z"/>
              <path class="cls-14" d="m9.145,69.111c-.132-.125-.342-.135-.524-.14-.204-.005-.398.005-.572.087-.019.001-.037.004-.058.009-.143.04-.317.262-.158.368.193.13.456.126.69.133.236.008.431-.078.586-.226.062-.06.106-.165.036-.231Z"/>
              <path class="cls-14" d="m9.408,70.883c-.012-.077-.078-.102-.159-.104-.05-.002-.097.012-.138.035-.004-.001-.007-.002-.011-.003-.079-.015-.156.036-.203.085-.033.035-.059.077-.065.122-.004.026,0,.075.032.091.083.038.16.073.258.064.058-.005.116-.028.165-.063.016-.009.03-.021.042-.033.004-.005.009-.011.014-.017.047-.052.075-.113.065-.176Z"/>
              <path class="cls-14" d="m15.155,71.143c-.024-.164-.307-.212-.455-.233-.044-.006-.088-.012-.131-.018-.093-.029-.193-.054-.287-.047-.144.011-.334.048-.444.133-.125.096-.214.24-.126.379.08.126.332.119.473.121.207.005.43.022.635-.004.172-.022.358-.172.336-.331Z"/>
              <path class="cls-14" d="m12.061,71.322c-.035-.015-.074-.008-.111.006-.012-.006-.028-.008-.045-.003-.012.004-.023.011-.034.019-.006.001-.011.002-.017.004-.034.006-.063.021-.091.04-.059.039-.128.134-.085.198.045.069.188.079.272.08.057.002.117-.045.15-.079.039-.042.062-.089.06-.144-.002-.061-.04-.096-.1-.121Z"/>
            </g>
            <g>
              <path class="cls-14" d="m119.378,65.362c-.419-.221-.869-.252-1.328-.3-.186-.019-.354-.023-.512-.003-.08-.011-.161-.018-.245-.019-.439-.002-.973.549-.747,1.024.254.533,1.077.373,1.507.31.565-.08,1.055-.159,1.323-.752.026-.058.088-.216.002-.261Z"/>
              <path class="cls-14" d="m122.089,63.266c-.291-.007-.656.089-.871.308,0,.001,0,.002-.002.002-.031,0-.062,0-.095-.002-.245-.021-.453.248-.446.495.01.349.456.318.681.269.146-.032.331-.126.477-.098.226.047.417-.086.55-.27.229-.318.088-.695-.293-.704Z"/>
              <path class="cls-14" d="m129.596,65.632c-.062-.533-.906-.566-1.26-.567-.255,0-.519.037-.784.097-.302-.032-.604-.039-.925.016-.435.076-1.076.252-1.372.637-.878,1.144,1.39,1.068,1.916,1.073.71.007,2.569-.019,2.425-1.255Zm-1.672.305c.122-.009.245-.01.37-.002-.135.018-.269.033-.402.049.011-.016.021-.031.032-.047Z"/>
              <path class="cls-14" d="m108.093,67.059c-.21-.213-.597-.276-.875-.291-.482-.025-1.085-.042-1.539.19-.213.046-.408.135-.559.33-.812,1.057,1.174.969,1.647.969.437,0,.738.004,1.099-.283.215-.172.475-.666.226-.915Z"/>
              <path class="cls-14" d="m113.012,64.129c-.239-.277-.623-.3-.956-.311-.373-.012-.727.01-1.044.193-.034.002-.068.008-.105.021-.26.091-.58.587-.289.826.353.291.832.282,1.26.298.432.018.785-.176,1.068-.508.114-.134.195-.369.066-.519Z"/>
              <path class="cls-14" d="m113.493,68.103c-.022-.172-.143-.226-.291-.234-.09-.004-.176.027-.251.08-.006-.002-.013-.006-.018-.008-.144-.033-.287.082-.371.192-.06.077-.106.172-.119.272-.008.059-.003.17.058.204.151.086.293.164.471.145.106-.011.213-.064.302-.143.028-.022.055-.045.077-.074.008-.01.017-.023.025-.039.085-.115.136-.255.118-.395Z"/>
              <path class="cls-14" d="m123.98,68.685c-.043-.367-.559-.476-.83-.521-.079-.014-.158-.027-.238-.039-.169-.068-.353-.121-.523-.105-.264.023-.608.108-.81.297-.228.214-.391.539-.23.85.145.282.606.267.862.273.379.009.784.048,1.159-.009.313-.049.653-.387.611-.744Z"/>
              <path class="cls-14" d="m118.333,69.087c-.063-.033-.135-.02-.202.012-.022-.014-.053-.016-.081-.006-.022.009-.044.024-.063.041-.01.002-.021.005-.03.008-.062.015-.116.049-.166.091-.107.088-.234.299-.156.444.084.154.345.177.497.182.105.002.215-.102.274-.18.072-.094.113-.2.109-.32-.004-.137-.072-.215-.182-.271Z"/>
            </g>
            <g>
              <path class="cls-13" d="m74.773,64.326c-.255-.135-.529-.154-.81-.184-.113-.012-.215-.015-.312-.002-.049-.006-.099-.011-.149-.011-.268-.001-.594.335-.456.624.155.326.657.227.919.19.346-.049.645-.098.809-.459.016-.035.053-.131,0-.158Z"/>
              <path class="cls-13" d="m76.427,63.046c-.178-.004-.399.055-.531.188,0,0,0,.001,0,.002-.019,0-.038,0-.058-.002-.149-.013-.276.151-.272.303.006.212.278.194.416.164.088-.02.201-.078.29-.06.139.028.254-.053.335-.165.14-.194.054-.425-.179-.43Z"/>
              <path class="cls-13" d="m81.008,64.49c-.038-.325-.553-.346-.769-.346-.155,0-.316.022-.478.059-.184-.019-.369-.023-.564.01-.265.046-.656.154-.837.389-.536.698.849.651,1.169.654.434.004,1.568-.012,1.479-.766Zm-1.021.186c.075-.004.15-.005.227,0-.082.01-.164.019-.246.029.007-.01.014-.019.019-.029Z"/>
              <path class="cls-13" d="m67.887,65.361c-.129-.13-.364-.169-.534-.178-.294-.016-.662-.025-.938.117-.131.027-.25.081-.342.201-.495.644.717.59,1.006.59.267,0,.45.002.67-.172.132-.105.29-.406.139-.559Z"/>
              <path class="cls-13" d="m70.889,63.574c-.146-.17-.38-.184-.584-.19-.226-.007-.444.006-.637.118-.02,0-.042.004-.064.012-.158.056-.354.357-.177.504.216.178.508.172.769.183.265.011.479-.107.652-.31.07-.082.119-.226.041-.316Z"/>
              <path class="cls-13" d="m71.182,65.997c-.013-.105-.087-.139-.177-.142-.056-.002-.107.017-.153.049-.004-.002-.007-.004-.012-.005-.088-.021-.175.05-.227.117-.036.048-.064.105-.072.166-.005.036-.002.103.035.124.093.053.179.101.287.089.064-.007.13-.04.185-.087.017-.014.033-.028.047-.045.004-.006.01-.016.016-.024.051-.071.083-.155.071-.241Z"/>
              <path class="cls-13" d="m77.581,66.353c-.026-.224-.341-.291-.507-.318-.048-.008-.097-.018-.145-.024-.103-.042-.215-.074-.319-.065-.16.015-.371.066-.494.182-.14.131-.238.329-.141.519.089.172.37.162.526.166.23.006.478.03.707-.006.191-.029.398-.235.373-.453Z"/>
              <path class="cls-13" d="m74.136,66.598c-.039-.021-.082-.012-.123.007-.015-.008-.033-.01-.051-.003-.014.005-.026.015-.038.024-.006.002-.012.004-.019.005-.038.01-.071.03-.101.056-.065.054-.143.183-.095.271.051.094.21.107.304.109.063.002.131-.061.167-.108.044-.058.069-.122.067-.195-.003-.083-.045-.132-.111-.166Z"/>
            </g>
            <g>
              <path class="cls-14" d="m26.954,65.262c-.419-.221-.869-.252-1.328-.3-.186-.02-.354-.023-.512-.004-.08-.01-.161-.018-.245-.018-.44-.002-.973.549-.747,1.022.255.534,1.077.373,1.507.312.566-.08,1.055-.159,1.323-.753.026-.058.088-.215.002-.26Z"/>
              <path class="cls-14" d="m29.664,63.166c-.291-.007-.654.089-.87.308l-.002.002c-.031,0-.062,0-.095-.002-.245-.022-.453.248-.446.495.011.349.456.318.681.269.145-.033.331-.126.476-.098.228.046.416-.086.549-.27.229-.317.089-.695-.293-.703Z"/>
              <path class="cls-14" d="m37.172,65.533c-.062-.533-.906-.566-1.26-.567-.255-.002-.52.036-.784.097-.302-.033-.604-.04-.925.016-.435.075-1.076.252-1.372.637-.879,1.144,1.391,1.067,1.916,1.072.71.008,2.569-.02,2.425-1.254Zm-1.672.304c.122-.009.245-.009.371-.001-.136.018-.269.033-.403.048.011-.015.021-.03.032-.047Z"/>
              <path class="cls-14" d="m15.669,66.959c-.211-.213-.597-.276-.875-.291-.482-.025-1.085-.042-1.539.19-.213.046-.408.135-.559.33-.811,1.057,1.174.969,1.647.969.437,0,.738.003,1.099-.283.215-.172.475-.666.227-.915Z"/>
              <path class="cls-14" d="m20.589,64.03c-.24-.278-.623-.3-.957-.312-.372-.012-.728.01-1.044.193-.034.002-.068.008-.105.021-.26.091-.581.586-.289.826.352.29.832.281,1.259.298.433.018.787-.176,1.07-.508.113-.134.194-.369.066-.519Z"/>
              <path class="cls-14" d="m21.069,68.003c-.023-.173-.143-.227-.291-.234-.09-.004-.175.027-.251.08-.006-.002-.012-.006-.019-.008-.143-.033-.286.082-.371.192-.059.077-.106.171-.119.271-.008.06-.003.17.058.205.151.086.293.164.471.145.107-.011.213-.065.302-.143.028-.021.055-.045.077-.074.008-.01.017-.023.025-.039.085-.115.136-.256.118-.395Z"/>
              <path class="cls-14" d="m31.556,68.585c-.043-.367-.56-.477-.83-.521-.079-.014-.158-.028-.238-.04-.169-.067-.352-.121-.523-.105-.264.024-.608.108-.81.297-.229.214-.391.54-.231.85.146.282.606.267.862.273.379.01.784.049,1.159-.009.313-.048.653-.386.611-.743Z"/>
              <path class="cls-14" d="m25.909,68.987c-.063-.032-.135-.019-.202.013-.022-.015-.053-.017-.081-.006-.023.008-.044.023-.063.041-.01.002-.02.004-.03.007-.062.016-.116.05-.167.091-.106.089-.233.299-.155.444.084.155.345.177.497.182.104.004.215-.102.275-.179.071-.094.112-.201.109-.32-.005-.137-.073-.215-.183-.272Z"/>
            </g>
            <path class="cls-14" d="m74.781,26.279c-.271-.462-.925-.623-1.413-.697-1.273-.191-2.532.33-3.768.548-1.548.274-3.176.034-4.719-.156-1.49-.183-3.027-.179-4.524-.122-1.537.058-3.069.154-4.608.202-1.538.048-3.023-.109-4.551-.246-1.492-.133-2.935.004-4.424.043-2.751.075-5.505-.23-8.253-.015-.057.004-.114.025-.172.058-.54-.004-1.081.009-1.623.05-1.477.111-2.967.337-4.404.699-.685.172-1.355.397-2.01.663-.497.201-1.195.44-1.522.893-.244.338-.442.799-.228,1.2.223.418.767.513,1.147.712,1.331.697,2.778,1.123,4.177,1.657,1.476.564,2.973,1.058,4.425,1.689,2.741,1.19,5.862,1.266,8.804,1.375,1.502.056,2.993.128,4.494.053,1.52-.075,3.033-.255,4.534-.495,1.493-.237,2.96-.822,4.37-1.348,1.418-.529,2.833-1.066,4.26-1.573,1.395-.497,2.842-.799,4.311-.971,1.247-.147,2.446-.085,3.607-.664.942-.469,1.844-1.301,2.169-2.325.128-.404.141-.858-.079-1.231Z"/>
            <path class="cls-14" d="m51.636,28.033c-.118-.197-.404-.266-.618-.297-.558-.081-1.108.141-1.649.233-.678.117-1.391.015-2.066-.066-.652-.078-1.325-.076-1.98-.052-.673.025-1.344.065-2.017.086-.673.021-1.324-.046-1.993-.104-.652-.057-1.284.002-1.936.019-1.204.032-2.41-.099-3.613-.007-.024.003-.05.011-.075.025-.236-.002-.474.003-.71.021-.647.047-1.3.143-1.929.297-.3.073-.594.169-.88.282-.218.085-.523.188-.666.381-.107.144-.194.34-.101.511.097.178.336.219.503.304.582.297,1.216.478,1.828.706.646.24,1.301.45,1.937.719,1.199.507,2.566.539,3.854.586.657.024,1.309.055,1.968.022.665-.032,1.327-.109,1.984-.21.654-.102,1.296-.351,1.913-.575.621-.225,1.241-.454,1.865-.67.611-.211,1.244-.34,1.888-.413.546-.062,1.071-.037,1.58-.283.412-.2.807-.555.949-.991.056-.172.062-.366-.035-.525Z"/>
            <path class="cls-14" d="m42.304,28.924c-.056-.093-.19-.125-.291-.14-.263-.039-.521.066-.775.11-.319.055-.655.007-.973-.032-.307-.036-.624-.036-.933-.024-.316.012-.632.031-.949.04-.316.009-.623-.022-.937-.049-.308-.026-.605.001-.911.009-.566.015-1.134-.046-1.7-.003-.012,0-.024.005-.036.011-.111-.001-.223.002-.334.01-.305.023-.611.068-.907.141-.142.034-.279.08-.414.133-.102.04-.247.088-.313.179-.051.068-.092.16-.048.241.046.083.158.102.236.143.274.14.573.225.861.332.304.113.612.212.911.339.565.238,1.208.254,1.814.276.309.011.616.025.925.01.313-.015.625-.051.936-.099.308-.047.609-.165.899-.27.293-.106.584-.213.878-.315.288-.1.585-.161.889-.195.257-.029.503-.017.743-.132.193-.094.379-.261.446-.466.026-.081.028-.172-.017-.247Z"/>
            <path class="cls-14" d="m85.556,22.465c-.526-.459-1.334-.455-1.994-.456-.778-.002-1.523.32-2.279.466-.603.117-1.599.272-2.322.663-.394.001-.79.049-1.144.211-.533.246-1.109.9-.828,1.521.173.382.74.453,1.1.485,1.057.096,2.108-.07,3.16-.14.913-.06,1.827.147,2.679-.267.765-.371,1.25-1.068,1.624-1.805.101-.198.208-.502.005-.678Z"/>
            <path class="cls-14" d="m90.854,22.119c-.065-.835-1.332-.146-1.64.131-.198.179-.436.539-.297.817.113.226.395.153.579.033.123.025.251.035.361.036.492.008,1.034-.528.996-1.018Z"/>
            <path class="cls-14" d="m74.874,34.132c-.641-.742-1.877-.771-2.763-.839-1.436-.111-2.963-.208-4.361.176-.04.011-.078.023-.117.034-.123.003-.246.004-.366.004-.527.001-1.061.016-1.586.081-.467.059-.892.531-.98.979-.152.769.866,1.197,1.409,1.466,1.051.521,2.233.705,3.399.726,1.415.026,2.863-.253,4.231-.58.893-.212,1.899-1.161,1.134-2.047Zm-9.152.221c-.019-.019-.038-.038-.054-.06-.095-.132.028-.054.054.06Z"/>
            <path class="cls-14" d="m79.451,35.943c-.079-.022-.165-.025-.247-.032-.138-.145-.396-.001-.522.1-.071.058-.132.125-.185.199-.109.153-.286.467-.086.629.1.08.228.059.346-.001.062.004.122.005.184-.001.281-.031.547-.262.622-.535.035-.128.055-.312-.111-.359Z"/>
            <path class="cls-14" d="m95.954,38.01c-.65-.229-1.388-.267-2.071-.272-.635-.005-1.346.039-1.932.308-.167.077-.339.194-.486.336-.153.038-.307.078-.467.114-.386.088-.73.258-.924.621-.196.372-.07.755.293.948.608.323,1.373.238,2.041.28.812.051,1.631.107,2.44-.001.773-.103,1.557-.456,1.827-1.246.201-.59-.216-.909-.722-1.088Z"/>
            <path class="cls-14" d="m100.678,37.753c-.186.021-.365.11-.518.238-.008,0-.017,0-.023.001-.229.024-.407.164-.544.342-.097.125-.218.399-.004.48.042.016.086.029.129.041.014.147.105.266.279.252.131-.012.248-.075.345-.164.049.004.097.01.145.015.292.034.597-.232.673-.509.1-.367-.046-.744-.481-.695Z"/>
            <path class="cls-14" d="m105.664,25.889c-.112-.206-.345-.315-.562-.361-.464-.098-.889.107-1.197.43-.113.021-.222.054-.308.084-.572.2-1.052,1.15-.223,1.346.708.168,1.682-.154,2.127-.727.173-.222.308-.505.163-.772Z"/>
            <path class="cls-14" d="m7.823,50.214c-.239-.318-.638-.24-.958-.026-.04-.011-.08-.021-.122-.026-.339-.046-.592.225-.759.485-.169.264-.134.601.103.802.084.071.222.174.329.201.126.033.278-.013.4-.041.273-.062.541-.174.76-.353.272-.224.492-.717.246-1.042Z"/>
            <path class="cls-14" d="m11.674,50.617c-.045-.09-.158-.104-.243-.068-.052.023-.103.045-.155.066-.098.041-.176.112-.229.205-.04.07-.095.231-.002.291.032.021.064.042.097.062.184.119.404-.091.489-.24.051-.09.093-.217.043-.316Z"/>
            <path class="cls-14" d="m11.874,55.908c-.633-.143-1.564.074-2.089.583-.436.22-.951.644-.686,1.173.23.457,1.037.342,1.443.332.375-.009.735.016,1.104-.088.479-.135.938-.541.979-1.064.036-.466-.321-.84-.752-.936Z"/>
            <path class="cls-14" d="m3.032,52.335c-.036.004-.072.011-.107.021-.038.008-.077.022-.114.043-.103-.052-.228-.061-.342-.026-.294.089-.472.391-.524.676-.018.097.019.231.132.253.336.064.693.024.947-.229.121-.122.227-.262.251-.438.022-.16-.062-.315-.242-.299Z"/>
            <path class="cls-14" d="m7.46,44.36c-.047-.788-1.331-.767-1.859-.752-.788.023-1.885.137-2.354.855-.153.162-.262.377-.179.595.269.705,1.525.572,2.131.602.851.042,2.333-.102,2.262-1.301Z"/>
            <path class="cls-14" d="m9.362,44.945c-.042-.059-.07-.097-.142-.115-.135-.036-.28.078-.357.174-.003.004-.005.01-.008.014-.049.041-.093.088-.135.137-.07.083-.127.204-.113.314,0,.014.002.027.002.04.006.054.028.099.068.134.044.033.093.046.146.039.215.015.39-.184.493-.344.063-.096.123-.285.046-.393Z"/>
            <path class="cls-14" d="m30.768,39.611c-.17-.277-.427-.318-.686-.235-.164-.099-.363-.153-.531-.155-.477-.009-.957.42-.994.902-.033.428.385.635.752.663.501.039.985-.13,1.3-.538.116-.151.28-.439.16-.637Z"/>
            <path class="cls-14" d="m20.419,8.88c-.726-.26-1.724-.112-2.478-.094-.707.017-1.403.148-2.109.151-.706.004-1.301-.019-1.735.624-.25.37-.242.766.028,1.049-.007.067-.008.136,0,.207.012.103.078.213.188.234,1.141.219,2.206.796,3.395.567.878-.169,1.851-.259,2.597-.8.682-.496,1.14-1.57.114-1.939Zm-.811,1.279c.027-.061.052-.119.071-.175.07.017.142.04.204.075-.089.042-.184.075-.277.104,0-.002,0-.003.002-.004Z"/>
            <g class="cls-12">
              <path class="cls-16" d="m9.368,9.368c-.076-.178-.311-.273-.48-.326-.206-.065-.47-.071-.67.017-.096.042-.192.109-.272.191-.209.145-.296.45-.213.68.081.223.369.366.576.432.102.032.216.042.321.035.058-.004.117-.02.171-.041.01-.003.19-.113.212-.124.263-.19.492-.541.355-.865Z"/>
              <path class="cls-16" d="m9.013,10.233c-.015.011-.03.022-.045.032.042-.027.053-.035.045-.032Z"/>
            </g>
            <path class="cls-14" d="m66.67,8.845c-1.081-.673-2.439-.527-3.659-.485-.428.015-.862.08-1.296.12-.133-.028-.269-.048-.41-.057-.474-.029-.929-.156-1.408-.126-.921.057-1.662,1.163-.85,1.838.824.684,2.085.922,3.11,1.027.738.076,1.373.016,2.073-.234.744-.266,1.436-.688,2.095-1.121.196-.129.71-.734.345-.961Zm-1.938.618c.138.02.274.046.407.08-.19.103-.385.199-.582.28.084-.112.155-.24.175-.36Z"/>
            <path class="cls-14" d="m86.245,60.622c-.061-.008-.127-.011-.194-.007-.02-.013-.041-.025-.062-.038-.174-.1-.35-.161-.553-.157-.368.008-.827.439-.69.828.09.254.475.307.701.344.262.042.53.059.795.06.199.002.372-.226.435-.39.135-.35-.09-.595-.432-.641Z"/>
            <path class="cls-14" d="m99.066,69.616c-.021-.227-.29-.403-.472-.508-.493-.282-1.096-.366-1.649-.452-.81-.126-1.63-.176-2.447-.217-.694-.037-1.378-.067-2.066-.17-.703-.105-1.383-.133-2.093-.128-.491.003-.983-.005-1.475.016-.332.014-.721.031-.993.243-.128.099-.246.279-.227.447.018.173.183.291.314.381.214.147.479.219.729.275.076.018.152.035.228.053.271.158.551.305.839.436.738.334,1.537.445,2.34.497.808.052,1.617.009,2.426.023.742.014,1.481.081,2.223.064.626-.016,1.356-.078,1.916-.386.197-.108.433-.323.408-.574Z"/>
          </g>
          <g>
            <path class="cls-2" d="m15.37,61.095c-.123-.065-.262-.071-.385.008-.182.118-.362.354-.267.578.053.127.238.154.356.166.375.035.797-.068.877-.501.063-.344-.359-.363-.582-.251Z"/>
            <path class="cls-2" d="m18.46,60.762c-.194,0-.424.443-.156.443.194,0,.424-.443.156-.443Z"/>
            <path class="cls-2" d="m27.748,61.921c-.144-.221-.457-.268-.7-.28-.013-.001-.025-.001-.037-.001-.138-.046-.274-.09-.425-.096-.283-.014-.617.278-.614.562.002.34.28.414.552.496.387.116.762.034,1.061-.234.098-.088.255-.309.163-.447Z"/>
            <path class="cls-2" d="m30.285,61.759c-.013-.006-.025-.014-.037-.02-.048-.025-.083-.035-.137-.027-.007,0-.015.004-.023.006-.058.01-.111.041-.156.084-.034.031-.063.068-.086.108,0,.002-.002.004-.003.006,0,0,0,.002-.002.004-.011.02-.02.039-.027.061-.007.017-.01.035-.012.054-.013.065-.005.134.049.162.02.015.048.022.084.017,0,0,.002,0,.003-.001.028,0,.056-.003.087-.011.022-.006.045-.017.067-.025.081-.029.148-.096.19-.171.021-.036.035-.074.041-.115.005-.037.002-.108-.039-.13Z"/>
            <path class="cls-2" d="m39.177,61.414c-.291-.062-.601.039-.897.012-.103-.01-.201-.01-.294.002-.073.004-.143.016-.207.042-.207.09-.472.272-.445.534.047.482.908.467,1.234.435.31-.03.631-.105.844-.343.24-.268.1-.611-.234-.682Z"/>
            <path class="cls-2" d="m42.441,61.156c-.008-.058-.058-.092-.114-.088-.061.004-.109.023-.156.057-.004.002-.009.003-.014.005-.077-.002-.153.009-.221.058-.093.066-.24.228-.168.357.054.095.173.082.267.073.079-.009.158-.017.237-.023.121-.006.227-.131.264-.236.031-.087.013-.201-.095-.203Z"/>
            <path class="cls-2" d="m41.651,63.552c-.053-.359-.592-.362-.865-.378-.284-.016-.605-.004-.852.138-.202.029-.594.166-.521.435.09.333.332.431.659.452.468.033.916.022,1.331-.217.136-.078.272-.266.248-.43Z"/>
            <path class="cls-2" d="m44.338,63.298c-.036-.004-.075-.013-.111,0-.038.014-.066.041-.093.07-.079.086-.135.168-.135.287,0,.132.161.111.234.066.113-.069.186-.191.186-.322,0-.04-.037-.097-.081-.101Z"/>
            <path class="cls-2" d="m51.91,62.486c-.018-.023-.04-.024-.061-.016-.014-.012-.028-.022-.042-.031-.011-.022-.025-.041-.045-.058-.087-.073-.178-.106-.269-.115-.071-.028-.144-.05-.221-.064-.277-.054-.473.057-.704.176-.204.105-.41.398-.166.567.333.23.756.094,1.105-.018.067-.022.154-.092.22-.177.014.006.028.012.043.019.088.04.189-.119.182-.19-.005-.038-.019-.061-.042-.093Z"/>
            <path class="cls-2" d="m31.386,59.358c-.027.002-.055.005-.082.007,0-.012-.003-.023-.008-.033-.029-.059-.102-.017-.137.01-.005.003-.043.019-.064.027-.044.018-.087.036-.128.061-.013.007-.074.047-.035.023-.035.022-.064.051-.093.081-.049.056-.083.123-.105.193-.024.074-.022.151.058.185.184.078.451.006.59-.127.071-.067.132-.152.146-.254.013-.093-.036-.182-.141-.173Z"/>
            <path class="cls-2" d="m8.711,65.8c-.12-.132-.328-.121-.492-.121-.184,0-.393.014-.584.068-.343-.061-.673.007-.893.371-.057.094-.074.205-.002.293.233.285.609.329.957.316.425-.016.77-.127,1.009-.498.079-.121.11-.316.006-.43Z"/>
            <path class="cls-2" d="m10.323,64.896c-.012-.008-.024-.017-.036-.025-.041-.027-.086-.024-.128-.009-.048-.023-.103.007-.141.038-.031.029-.08.093-.085.148-.056.088-.075.19.025.234.044.02.078.036.128.029.101-.016.184-.091.234-.178.034-.061.077-.188.002-.238Z"/>
            <path class="cls-2" d="m12.454,65.813c.032-.036.056-.082.036-.106,0-.012.003-.022.003-.035.002-.027-.002-.053-.011-.075,0-.001-.002-.003-.002-.004-.003-.006-.005-.012-.009-.017-.021-.039-.059-.065-.119-.057-.014,0-.028-.002-.042-.002-.079-.006-.153.045-.211.113-.069,0-.144.033-.197.063-.097.055-.291.336-.099.396.102.032.198.035.303.011.071-.017.141-.059.198-.115.063-.042.116-.106.149-.172Z"/>
            <path class="cls-2" d="m5.382,64.153c-.182-.159-.485-.196-.712-.227-.314-.044-.669-.057-.965.076-.18.08-.698.561-.415.777.12.091.266.14.416.156.511.257,1.281-.008,1.624-.402.077-.089.163-.282.052-.38Z"/>
          </g>
          <g>
            <path class="cls-2" d="m93.516,63.758c-.123-.064-.262-.071-.385.009-.181.117-.363.353-.267.577.053.128.238.155.356.166.375.035.797-.068.877-.501.063-.344-.359-.363-.582-.251Z"/>
            <path class="cls-2" d="m96.606,63.425c-.194,0-.425.443-.156.443.194,0,.425-.443.156-.443Z"/>
            <path class="cls-2" d="m105.894,64.584c-.144-.22-.457-.267-.7-.28-.013-.001-.025-.001-.038-.001-.137-.046-.273-.09-.424-.096-.283-.013-.617.278-.615.562.003.341.281.413.553.495.387.117.761.035,1.061-.234.098-.086.254-.307.163-.446Z"/>
            <path class="cls-2" d="m108.431,64.423c-.012-.008-.025-.014-.037-.021-.048-.025-.083-.035-.137-.027-.007.001-.015.004-.022.006-.058.01-.111.042-.156.084-.034.03-.063.068-.086.108,0,.002-.002.004-.003.005s-.002.003-.002.004c-.011.02-.021.04-.028.061-.005.016-.009.034-.011.053-.013.066-.005.134.049.162.02.015.048.022.084.017,0-.001.002-.001.002-.001.029,0,.057-.003.088-.01.023-.007.045-.017.066-.025.082-.031.149-.097.191-.172.021-.035.035-.074.041-.115.005-.037.002-.107-.039-.129Z"/>
            <path class="cls-2" d="m117.323,64.077c-.292-.063-.603.04-.898.012-.103-.009-.201-.009-.293.003-.074.002-.145.015-.207.042-.208.089-.473.271-.446.534.047.482.908.467,1.234.434.31-.029.631-.105.844-.342.24-.269.1-.611-.233-.683Z"/>
            <path class="cls-2" d="m120.586,63.819c-.007-.059-.059-.091-.114-.088-.061.003-.11.024-.156.057-.005.002-.009.003-.014.005-.077-.002-.153.01-.221.058-.093.067-.24.228-.168.357.054.095.173.083.267.073.079-.008.158-.017.237-.021.121-.008.227-.131.264-.236.031-.088.014-.202-.095-.204Z"/>
            <path class="cls-2" d="m119.797,66.215c-.054-.36-.592-.362-.865-.378-.283-.016-.606-.004-.851.138-.203.03-.595.166-.522.435.09.333.332.431.659.453.469.031.916.02,1.332-.219.135-.077.271-.265.247-.429Z"/>
            <path class="cls-2" d="m122.484,65.961c-.037-.003-.076-.013-.112,0-.039.015-.066.041-.094.07-.079.086-.135.167-.135.288,0,.131.162.109.235.065.113-.069.186-.191.186-.323,0-.039-.037-.096-.08-.101Z"/>
            <path class="cls-2" d="m130.056,65.15c-.018-.023-.04-.025-.061-.017-.014-.011-.028-.021-.043-.032-.01-.02-.024-.039-.044-.057-.087-.072-.178-.106-.27-.115-.07-.027-.143-.05-.22-.065-.277-.053-.473.058-.705.176-.203.104-.409.399-.165.566.334.23.756.096,1.106-.016.066-.022.153-.092.22-.178.015.006.029.013.043.019.089.04.189-.119.181-.19-.004-.038-.018-.061-.041-.092Z"/>
            <path class="cls-2" d="m109.531,62.021c-.028.002-.056.005-.082.008,0-.012-.003-.023-.008-.034-.029-.058-.103-.018-.138.01-.004.003-.042.019-.063.028-.044.017-.088.035-.129.06-.012.007-.073.048-.034.023-.035.022-.065.051-.092.081-.05.056-.084.123-.107.193-.024.074-.022.152.058.186.184.077.451.006.59-.127.071-.068.132-.154.145-.254.013-.094-.036-.183-.141-.174Z"/>
            <path class="cls-2" d="m65.543,63.78c-.119-.132-.328-.121-.491-.12-.184,0-.394.013-.585.067-.342-.062-.672.007-.893.37-.057.096-.073.206-.002.293.234.286.61.33.957.317.426-.016.769-.127,1.009-.497.079-.121.11-.317.006-.431Z"/>
            <path class="cls-2" d="m67.155,62.876c-.012-.008-.023-.017-.035-.024-.041-.027-.086-.025-.129-.01-.047-.023-.104.007-.14.039-.032.028-.081.092-.085.148-.057.087-.075.189.024.233.044.019.077.036.128.029.102-.016.185-.091.235-.179.033-.06.076-.186,0-.237Z"/>
            <path class="cls-2" d="m69.286,63.792c.032-.036.056-.082.036-.105.002-.012.003-.023.003-.035.002-.027,0-.054-.011-.076,0-.001,0-.002-.002-.004-.003-.006-.005-.012-.009-.017-.021-.039-.058-.065-.119-.056-.014-.002-.027-.002-.042-.004-.079-.005-.153.046-.211.113-.069.002-.144.034-.197.064-.097.055-.291.336-.099.396.103.031.198.035.303.011.072-.017.141-.06.199-.116.063-.043.115-.106.148-.172Z"/>
            <path class="cls-2" d="m62.214,62.132c-.181-.159-.484-.195-.712-.227-.313-.045-.669-.057-.965.076-.179.079-.698.561-.414.776.119.091.265.141.415.157.511.256,1.281-.01,1.624-.402.078-.09.163-.283.052-.381Z"/>
          </g>
          <g>
            <path class="cls-3" d="m6.809,6.042c-.241-.146-.537-.125-.807-.08l-.076.012c-.192-.017-.375-.006-.615.04-.291.055-.595.055-.845.232-.109.078-.31.339-.107.429.203.09.419.061.636.052.273-.01.549,0,.823.002.406.002.758-.088.989-.439.037-.056.08-.201.002-.248Z"/>
            <path class="cls-3" d="m9.695,5.331c-.04-.037-.087-.062-.137-.08.019-.05.016-.093-.043-.083-.358.066-.728-.012-1.095.054-.232.042-.555.052-.713.253-.058.074-.108.186-.036.267.202.226.645.118.897.06.337-.077.78-.098,1.067-.305.042-.03.114-.115.06-.166Zm-1.206.233c.048-.007.095-.013.144-.017.15-.012.302-.076.456-.092.097-.01.185-.027.273-.054.023.006.045.012.065.02-.197.063-.451.1-.597.118-.104.013-.223.026-.342.025Z"/>
            <path class="cls-3" d="m2.36,6.721c-.112-.01-.207-.009-.313.036-.024.011-.048.024-.07.04-.082-.012-.173.097-.202.153-.024.049-.06.143,0,.184.022.017.051.028.082.036.032.028.08.038.133.015.003-.001.006-.002.009-.003.078-.004.157-.022.214-.043.097-.036.175-.124.209-.221.02-.056.03-.189-.06-.196Z"/>
            <path class="cls-3" d="m13.84,5.797c0-.017-.005-.031-.018-.04-.01-.01-.022-.018-.041-.02-.015-.001-.028-.002-.043-.003-.375-.079-.896-.209-1.195.088-.067.068-.148.181-.102.282.103.222.436.189.635.174.239-.019.543-.106.703-.297.024-.029.068-.122.061-.184Z"/>
            <path class="cls-3" d="m15.52,4.608v-.006c-.003-.05-.029-.064-.063-.059-.269-.124-.54-.088-.827-.037-.329.059-.647.036-.969.155-.101.037-.291.274-.122.342.208.084.497.036.716.055.165.014.335-.005.5-.007.227-.002.628.004.7-.281,0-.003,0-.007.002-.01.041-.043.066-.102.063-.153Z"/>
            <path class="cls-3" d="m16.831,5.257c-.01.003-.021.006-.032.008-.02-.022-.052-.03-.089-.017-.076.027-.159.028-.239.039-.071.011-.13.072-.153.138-.016.046-.009.122.054.119.1.014.191.005.286-.028.049-.01.098-.023.144-.039.06-.02.111-.086.119-.148.009-.06-.034-.089-.09-.073Z"/>
            <path class="cls-3" d="m17.031,3.9s-.002-.007-.004-.011c-.024-.063-.101-.055-.151-.042-.063.017-.114.049-.16.097h0c-.056.048-.1.117-.09.189.007.051.024.095.078.113.087.028.157-.012.226-.068.076-.062.139-.179.101-.277Z"/>
            <path class="cls-3" d="m4.909,3.402c-.207-.114-.42-.067-.643-.077-.354-.054-.73-.056-.833.293-.012.041-.021.094.017.125.215.181.541.124.801.126.251,0,.523-.04.657-.278.024-.042.063-.154,0-.189Z"/>
            <path class="cls-3" d="m5.855,3.79c-.007-.006-.016-.009-.027-.009-.017-.004-.034-.008-.051-.012-.002-.001-.002-.002-.004-.003-.008-.004-.016-.009-.023-.013-.062-.034-.122-.004-.173.038-.003.003-.006.005-.009.008t.001,0c-.036.029-.065.068-.08.112,0,.003-.002.008-.003.012-.018.047-.016.092.018.114.025.029.072.03.106.018.012-.005.023-.009.035-.014.008-.003.015-.007.021-.011.021-.004.042-.008.063-.013.002,0,.003-.001.005-.001.013-.002.025-.006.038-.014.005-.002.01-.006.014-.009h.002c.037-.024.067-.06.083-.103,0-.003,0-.006.002-.009.015-.039.012-.076-.019-.092Z"/>
            <path class="cls-3" d="m25.947,6.157c-.044.017-.115.075-.175.146-.039.021-.074.047-.108.081-.051.053-.127.15-.083.23.158.289.517.225.797.251.284.027.672.053.873-.195.558-.689-1.026-.622-1.304-.514Z"/>
            <path class="cls-3" d="m29.01,5.72c-.046-.037-.096-.023-.148-.016-.036.005-.073.012-.108.022-.011.002-.022.005-.034.009-.076.032-.204.189-.087.247.01.005.011.006.002.001.011.009.023.013.037.015.017.003.035.006.052.009.055.009.103.02.155-.006.056-.026.1-.062.131-.116.025-.045.051-.126,0-.166Z"/>
            <path class="cls-3" d="m33.564,4.191c-.036-.159-.189-.181-.333-.185-.082-.002-.168-.005-.255-.005-.38-.056-.949-.134-1.041.293-.006.029,0,.073.027.091.197.137.433.15.666.14.274-.01.535.047.789-.082.076-.038.166-.162.146-.252Z"/>
            <path class="cls-3" d="m35.025,3.891c-.031-.003-.055-.002-.085.006-.008.001-.015.003-.022.006-.004-.002-.008-.005-.014-.006h0v.003c-.054-.016-.128.036-.169.079-.052.057-.063.127-.051.199.01.06.062.078.115.059.058-.02.108-.071.136-.129.006-.002.011-.005.017-.007.048-.012.09-.066.105-.111.01-.029.015-.094-.031-.1Z"/>
            <path class="cls-3" d="m21.049,6.691c.005-.017.008-.034.008-.053,0-.037-.042-.046-.07-.036-.019.006-.033.018-.048.031-.003,0-.007,0-.01,0-.034-.003-.067-.007-.102-.01-.085-.006-.168.037-.217.106-.036.051-.071.119-.024.173.059.066.137.087.219.095.02.005.042.004.062.004.125.003.268-.235.183-.31Z"/>
            <path class="cls-3" d="m14.972,7.125c-.226-.148-.567-.118-.822-.145-.132-.014-.285.029-.396.113-.083.023-.144.084-.155.216-.002.03,0,.058.005.082.002.026.006.052.014.08.014.043.04.058.072.057.07.055.172.081.273.084.276.012.561.034.819-.079.098-.042.354-.301.189-.409Z"/>
          </g>
          <g>
            <path class="cls-3" d="m126.343,8.205c.241-.146.537-.124.807-.08.026.004.052.008.077.012.191-.017.374-.006.615.04.291.055.595.055.844.233.109.078.31.339.107.429-.203.09-.419.06-.636.052-.273-.011-.549,0-.822.002-.407.003-.759-.087-.99-.438-.037-.056-.079-.201-.002-.249Z"/>
            <path class="cls-3" d="m123.516,7.659c.288.208.73.228,1.067.306.252.058.694.165.896-.06.072-.08.022-.192-.036-.266-.158-.201-.481-.211-.713-.253-.365-.067-.736.011-1.094-.054-.06-.011-.063.033-.043.083-.051.018-.098.043-.138.08-.055.051.019.135.06.166Zm.805.041c-.146-.018-.4-.055-.596-.118.019-.008.042-.014.063-.02.09.026.178.044.274.054.154.016.306.08.456.093.049.003.096.009.144.017-.118,0-.236-.013-.342-.026Z"/>
            <path class="cls-3" d="m130.791,8.883c.112-.01.207-.009.312.036.024.011.048.024.07.039.082-.011.174.097.202.154.025.048.061.142.002.184-.023.017-.053.027-.083.036-.032.028-.079.038-.133.015-.003-.002-.006-.003-.009-.004-.078-.004-.156-.022-.214-.043-.097-.036-.175-.124-.209-.22-.019-.057-.03-.188.061-.196Z"/>
            <path class="cls-3" d="m119.312,7.959c0-.017.006-.03.017-.04.01-.01.022-.018.041-.019.015-.002.028-.003.043-.004.375-.078.897-.209,1.195.088.067.068.149.181.103.282-.103.222-.436.189-.635.174-.24-.019-.544-.106-.703-.297-.025-.029-.069-.122-.061-.184Z"/>
            <path class="cls-3" d="m117.632,6.77v-.006c.003-.05.029-.065.064-.059.269-.125.54-.088.827-.037.329.059.647.036.97.155.1.038.29.274.121.342-.208.084-.497.037-.716.055-.164.014-.334-.005-.499-.006-.228-.002-.629.003-.701-.281,0-.003-.002-.007-.002-.011-.041-.042-.067-.102-.064-.153Z"/>
            <path class="cls-3" d="m116.32,7.42c.011.003.021.005.032.008.019-.022.052-.03.089-.017.076.027.159.028.239.04.071.01.13.072.153.138.017.046.009.122-.054.12-.099.014-.19.005-.285-.028-.049-.011-.098-.024-.145-.039-.06-.019-.111-.085-.119-.147-.009-.061.035-.089.09-.073Z"/>
            <path class="cls-3" d="m116.12,6.062s.003-.007.004-.011c.024-.063.101-.055.151-.041.063.016.114.049.16.096h0c.057.048.1.117.09.189-.007.051-.024.095-.077.113-.088.028-.158-.011-.227-.067-.075-.064-.139-.18-.1-.278Z"/>
            <path class="cls-3" d="m128.242,5.564c.207-.113.42-.067.644-.077.354-.054.729-.056.832.293.013.041.021.094-.017.126-.215.18-.54.124-.8.125-.252.001-.524-.04-.658-.278-.023-.042-.063-.154,0-.188Z"/>
            <path class="cls-3" d="m127.298,5.953c.006-.005.016-.008.026-.008.017-.004.034-.008.051-.012.002-.001.003-.003.004-.003.009-.004.016-.009.024-.013.062-.034.122-.004.173.039.004.002.007.005.01.008h0c.035.029.063.067.079.111.002.004.002.008.003.012.017.047.016.092-.018.114-.025.029-.073.03-.106.018-.012-.005-.023-.009-.035-.014-.007-.002-.015-.007-.021-.011-.022-.004-.042-.008-.064-.012-.002,0-.003-.001-.005-.002-.012-.002-.025-.006-.037-.014-.005-.002-.011-.005-.016-.009h0c-.038-.024-.068-.06-.084-.103,0-.002-.002-.006-.002-.009-.015-.039-.012-.076.019-.092Z"/>
            <path class="cls-3" d="m107.205,8.32c.043.017.115.075.175.146.038.021.074.047.107.081.051.052.127.15.083.23-.157.289-.517.224-.796.251-.285.027-.673.053-.874-.195-.558-.689,1.026-.622,1.305-.514Z"/>
            <path class="cls-3" d="m104.144,8.048c.03.054.074.089.129.116.053.025.102.015.156.006.017-.003.035-.006.053-.009.013,0,.025-.005.036-.014-.008.004-.008.003.003-.002.117-.059-.011-.215-.088-.247-.012-.005-.023-.008-.034-.009-.035-.01-.071-.017-.108-.022-.053-.008-.103-.021-.148.016-.049.04-.023.12.002.166Z"/>
            <path class="cls-3" d="m99.589,6.353c.036-.159.189-.181.332-.185.082-.003.168-.005.256-.005.379-.057.948-.135,1.04.293.006.029,0,.073-.027.091-.197.137-.433.149-.666.14-.274-.011-.535.047-.789-.082-.076-.039-.166-.163-.146-.252Z"/>
            <path class="cls-3" d="m98.127,6.053c.031-.004.056-.002.086.005.007.002.015.003.022.006.005-.002.009-.004.014-.005h0v.003c.054-.015.129.036.169.08.052.057.062.127.051.199-.009.06-.062.078-.115.06-.058-.022-.108-.072-.136-.13-.005-.002-.011-.005-.016-.006-.049-.012-.091-.067-.105-.111-.011-.029-.016-.094.03-.099Z"/>
            <path class="cls-3" d="m112.103,8.854c-.005-.017-.008-.034-.008-.053.002-.038.042-.046.071-.036.017.006.032.018.047.031.003,0,.007,0,.011,0,.033-.004.067-.008.101-.01.085-.006.169.037.217.106.036.051.072.119.024.174-.058.066-.137.087-.219.095-.019.005-.042.004-.061.004-.124.003-.268-.235-.183-.31Z"/>
            <path class="cls-3" d="m118.18,9.287c.226-.148.567-.118.822-.145.132-.014.285.03.395.114.084.022.144.083.155.215.002.031,0,.058-.005.083,0,.025-.006.052-.014.08-.014.043-.04.058-.072.057-.07.055-.172.08-.273.084-.276.012-.56.034-.819-.079-.098-.042-.354-.301-.189-.409Z"/>
          </g>
          <g>
            <path class="cls-3" d="m76.282,4.915c.24-.146.537-.125.807-.08.025.004.051.008.076.012.192-.017.374-.006.615.04.291.055.596.055.845.232.109.078.31.339.106.429-.203.09-.418.06-.635.052-.273-.01-.549,0-.823.002-.406.003-.758-.087-.989-.438-.038-.056-.08-.201-.002-.248Z"/>
            <path class="cls-3" d="m73.455,4.369c.287.208.729.228,1.067.305.252.058.694.166.896-.06.071-.08.021-.193-.036-.267-.158-.201-.48-.211-.714-.253-.365-.066-.735.012-1.094-.054-.059-.011-.062.033-.043.082-.051.018-.098.043-.137.081-.055.051.018.136.06.166Zm.804.041c-.144-.018-.399-.055-.596-.118.02-.008.042-.014.064-.019.089.026.178.044.274.054.154.016.306.08.455.092.049.004.097.01.144.017-.119,0-.237-.012-.343-.025Z"/>
            <path class="cls-3" d="m80.731,5.593c.112-.01.207-.009.312.037.024.01.048.024.069.039.082-.012.174.097.203.153.024.049.059.143,0,.185-.023.017-.052.027-.082.035-.032.028-.08.038-.134.015-.002-.001-.006-.002-.008-.004-.079-.004-.157-.022-.214-.043-.097-.036-.176-.124-.21-.22-.019-.056-.03-.189.061-.197Z"/>
            <path class="cls-3" d="m69.25,4.67c0-.017.006-.031.019-.04.01-.01.021-.018.041-.02.015-.001.028-.002.042-.004.376-.078.897-.209,1.195.088.067.067.149.18.103.282-.103.222-.436.189-.635.174-.24-.019-.543-.106-.703-.296-.024-.03-.068-.123-.062-.185Z"/>
            <path class="cls-3" d="m67.571,3.481v-.006c.003-.05.029-.065.063-.059.269-.125.54-.088.827-.037.329.059.646.036.969.155.101.037.291.274.122.342-.208.083-.497.037-.716.056-.165.014-.335-.005-.5-.007-.227-.002-.629.003-.7-.281,0-.003-.002-.006-.003-.01-.04-.043-.065-.102-.062-.153Z"/>
            <path class="cls-3" d="m66.26,4.13c.01.003.021.005.032.008.019-.021.051-.03.089-.017.076.027.159.028.239.039.071.011.13.072.153.138.017.046.009.122-.055.12-.099.014-.19.005-.285-.028-.049-.01-.097-.023-.144-.039-.06-.021-.111-.086-.12-.148-.008-.06.035-.088.091-.072Z"/>
            <path class="cls-3" d="m66.059,2.772s.003-.007.004-.011c.025-.063.102-.055.151-.041.065.017.114.049.161.096,0,0,0,0,0,0,.056.048.1.117.09.189-.008.051-.024.095-.077.112-.089.029-.159-.012-.227-.068-.076-.063-.139-.18-.102-.278Z"/>
            <path class="cls-3" d="m78.181,2.275c.208-.114.421-.067.644-.077.354-.054.73-.057.833.293.012.041.02.094-.017.126-.215.18-.541.124-.801.126-.252,0-.523-.04-.657-.278-.024-.043-.064-.154-.002-.188Z"/>
            <path class="cls-3" d="m77.236,2.664c.007-.006.016-.009.026-.009.018-.004.035-.008.052-.012.002-.001.002-.002.004-.003.008-.004.016-.009.023-.013.062-.035.122-.004.173.038.003.002.006.005.009.008h0c.034.029.063.067.079.111,0,.004.002.008.003.012.018.047.016.091-.018.114-.024.03-.072.03-.105.018-.012-.004-.023-.009-.035-.014-.008-.003-.015-.006-.021-.01-.021-.004-.043-.009-.064-.013-.001,0-.002-.001-.004-.001-.013-.002-.025-.007-.038-.014-.005-.003-.01-.006-.015-.009h0c-.038-.025-.068-.061-.083-.103,0-.003-.002-.007-.002-.01-.015-.039-.013-.076.019-.091Z"/>
            <path class="cls-3" d="m57.144,5.03c.044.018.115.076.175.146.038.021.074.047.107.081.052.053.128.15.084.23-.158.289-.517.225-.797.251-.284.027-.672.053-.873-.195-.558-.689,1.026-.622,1.304-.514Z"/>
            <path class="cls-3" d="m54.082,4.758c.031.054.074.09.13.116.053.026.101.015.155.006.018-.003.035-.006.053-.009.014-.001.025-.005.036-.014-.008.004-.007.003.003-.001.117-.058-.011-.215-.088-.247-.011-.005-.022-.007-.033-.009-.036-.01-.072-.017-.108-.022-.053-.008-.103-.021-.148.015-.05.04-.024.121,0,.166Z"/>
            <path class="cls-3" d="m49.527,3.064c.036-.159.188-.181.333-.185.081-.003.168-.005.255-.006.38-.057.949-.135,1.041.293.006.029,0,.073-.027.091-.197.137-.433.149-.666.14-.275-.011-.535.047-.79-.083-.075-.039-.165-.162-.145-.252Z"/>
            <path class="cls-3" d="m48.066,2.764c.031-.003.055-.002.085.005.008.001.015.003.021.006.005-.003.009-.005.015-.005h0v.003c.054-.015.128.037.168.08.053.057.063.126.052.199-.01.06-.062.078-.115.059-.059-.021-.109-.071-.136-.129-.006-.002-.011-.005-.017-.007-.048-.012-.09-.066-.105-.111-.01-.029-.016-.094.031-.099Z"/>
            <path class="cls-3" d="m62.042,5.564c-.005-.017-.009-.034-.008-.053,0-.038.042-.046.07-.036.018.006.033.018.047.031.004,0,.007,0,.011,0,.034-.003.067-.007.101-.01.085-.006.168.037.217.106.036.051.071.12.023.173-.058.066-.137.088-.218.095-.02.005-.043.004-.062.004-.124.003-.268-.235-.182-.31Z"/>
            <path class="cls-3" d="m68.118,5.997c.226-.147.568-.118.823-.145.132-.014.284.03.395.114.084.022.145.083.156.216.002.03,0,.057-.005.082-.002.026-.006.052-.014.08-.014.043-.04.059-.072.058-.07.055-.172.08-.273.084-.276.012-.562.034-.82-.079-.098-.042-.354-.301-.189-.41Z"/>
          </g>
        </g>
        <path class="cls-10" d="m35.32,16.826c.961.027,1.923.022,2.885.026,1.022.004,2.048.082,3.07.046,2.258-.08,4.495-.665,6.753-.627-2.138-.454-4.256-1.063-6.433-1.177-1.091-.057-2.183-.048-3.275-.099-1.112-.052-2.226-.113-3.339-.111-1.059.002-2.166-.003-3.203.281-.677.186-1.332.455-1.979.753,1.776.69,3.666.856,5.521.907Z"/>
      </g>
    </g>
  </g>
</svg>