<?xml version="1.0" encoding="UTF-8"?>
<svg id="OBJECTS" xmlns="http://www.w3.org/2000/svg" xmlns:xlink="http://www.w3.org/1999/xlink" viewBox="0 0 88.389 88.389">
  <defs>
    <style>
      .cls-1 {
        fill: #212a3c;
        opacity: .2;
      }

      .cls-2 {
        fill: #fff;
      }

      .cls-2, .cls-3 {
        opacity: .3;
      }

      .cls-4 {
        fill: #34b1e4;
      }

      .cls-5 {
        fill: #d7df23;
      }

      .cls-6 {
        fill: #f9f98f;
      }

      .cls-3 {
        fill: url(#linear-gradient);
      }
    </style>
    <linearGradient id="linear-gradient" x1="-57.918" y1="-88.626" x2="-40.084" y2="-55.809" gradientTransform="translate(85.432 79.948) rotate(-9.872) scale(.831 .851) skewX(1.297)" gradientUnits="userSpaceOnUse">
      <stop offset="0" stop-color="#fff"/>
      <stop offset="1" stop-color="#fff" stop-opacity="0"/>
    </linearGradient>
  </defs>
  <g>
    <path class="cls-4" d="m88.389,44.194c0,24.407-19.785,44.194-44.193,44.194S0,68.602,0,44.194,19.786,0,44.195,0s44.193,19.786,44.193,44.194Z"/>
    <g>
      <path class="cls-5" d="m46.998,72.813c1.356-2.411-.15-7.383-.15-8.588s-6.78-4.521-8.438-5.123c-1.657-.603-2.41.302-2.41.302,0,0-9.794,2.862-11,4.821-1.205,1.958-8.889-1.959-9.191-3.767-.302-1.809-2.109-7.232-2.26-7.836-.151-.602-8.137-6.177-9.04-6.328-.425-.07-2.277.59-4.342,1.623,1.74,20.848,17.944,37.572,38.552,40.121.15-2.596-.24-5.014-.009-8.145.302-4.068.754-2.26,3.768-3.766,3.013-1.508,3.164-.904,4.519-3.316Z"/>
      <path class="cls-5" d="m55.379,76.635c-.605,1.367-.551,2.52,1.1,3.025,1.208.371,2.296-.025,3.469-.299,1.02-.238,2.392.047,3.223-.676,2.508-2.18.451-4.174-1.652-5.676-.663-.474-1.354-.904-2.019-1.373-2.912-2.051-3.424,3.426-4.12,4.998Z"/>
      <path class="cls-5" d="m67.185,6.445c-2.525,3.681-4.626,8.441-2.71,12.579,3.767,8.136,9.794,4.821,4.671,16.573-5.122,11.753-8.889,6.63-8.287,18.231.604,11.602,2.713,18.532,6.63,18.382s4.972-15.82,15.218-14.314c1.225.182,2.292.467,3.231.811,1.582-4.547,2.451-9.428,2.451-14.513,0-15.986-8.488-29.988-21.203-37.749Z"/>
      <path class="cls-5" d="m15.207,17.066c3.615,2.109,4.369,1.958,9.04,8.438,4.671,6.478-1.507,7.984-3.014,13.559-1.506,5.575-1.205,9.492.904,11.3,2.109,1.809,15.067,1.055,14.163-3.314-.904-4.369-1.055-10.246-1.055-15.368s3.767-1.808,8.739-3.917c4.973-2.109,4.067-11,4.067-12.656s-4.067-7.986-7.081-9.794c-1.271-.763-3.398-2.596-5.433-4.461-10.306,2.047-19.317,7.677-25.688,15.536,1.465.387,3.388-.471,5.355.678Z"/>
      <path class="cls-5" d="m62.243,28.684c-.855-1.173-2.32-1.705-3.738-1.676-.505.011-1.002.092-1.466.239-2.105.673-3.403,2.85-3.662,4.986-.222,1.819.753,8.287.903,8.89.15.602.302,2.26.15,3.466-.081.652,1.742-.253,1.933-.345,1.165-.563,2.3-1.182,2.984-2.324.759-1.266.914-2.805,1.483-4.152,1.157-2.737,3.507-6.213,1.412-9.084Z"/>
    </g>
    <g>
      <path class="cls-6" d="m80.946,50.965c1.017-.404,1.665-.68,1.952-1.819.578-2.284-.664-4.848-2.32-6.369-.964-.886-2.209-1.364-3.535-1.189-.415.056-.844.159-1.273.301-1.791.592-3.604,1.87-4.6,3.294-1.042,1.49-.778,3.344-.819,5.066-.029,1.256-.105,2.51-.221,3.762-.108,1.183-1.425,3.25.145,3.912,3.296,1.392,4.481-2.254,6.407-4.28,1.143-1.202,2.742-2.073,4.264-2.677Z"/>
      <path class="cls-6" d="m72.112,9.939c-.748,1.146-1.266,2.634-1.52,3.676-.533,2.172,1.211,5.02,3.233,5.797,1.717.659,1.137,2.271.829,3.699-.449,2.088-1.214,4.149-1.214,6.309,0,2.386.129,3.538,2.809,3.64,1.121.042,2.346.163,2.794-1.066.496-1.355.233-3.072-.026-4.457-.227-1.205-.076-1.656.3-2.787.327-.978.754-2.043.754-3.088,0-.83-.903-2.109-1.28-3.24-.297-.891-.174-.944-.366-2.18-1.887-2.307-4.002-4.419-6.311-6.303Z"/>
      <path class="cls-6" d="m39.019,64.871c-1.34-.059-2.551.709-3.789,1.094-.804.248-1.61.48-2.414.722-.678.203-1.352.415-2.019.649-2.921,1.027-5.746,2.594-7.173,5.475-.551,1.108,3.487,1.32,3.93,1.35,2.074.139,4.069-.435,6.1-.745,2.12-.322,4.273-.394,6.383-.786,1.863-.344,3.192-1.393,3.671-3.279.689-2.706-2.304-4.371-4.688-4.479Z"/>
      <path class="cls-6" d="m30.497,15.471c-.425-.11-1.093-.688-1.506-.658-2.199.152-.752,3.71.014,4.525,1.324,1.405,2.896,2.985,4.885,1.494.806-.604,1.632.334,2.316.703.328.178,2.56,1.377,2.91,1.104.929-.726,2.047-1.414,2.71-2.408,1.542-2.316,1.121-5.586.201-8.037-.952-2.536-3.645-4.587-6.048-5.662-.45-.201-.919-.279-1.371-.254-1.753.098-2.883,1.735-2.325,3.406.005.012.606,1.812,1.507,3.214.905,1.407,0,1.607-.1,2.21-.152.91-2.638.507-3.192.363Z"/>
    </g>
  </g>
  <g>
    <path class="cls-1" d="m9.901,72.064c8.104,9.959,20.452,16.324,34.294,16.324,24.408,0,44.193-19.787,44.193-44.194,0-9.917-3.265-19.069-8.78-26.443-11.746,18.1-40.587,57.051-69.707,54.314Z"/>
    <path class="cls-1" d="m13.115,75.607c7.984,7.9,18.96,12.781,31.08,12.781,24.408,0,44.193-19.787,44.193-44.194,0-1.63-.094-3.236-.266-4.82-12.67,17.598-39.446,46.08-75.008,36.233Z"/>
  </g>
  <path class="cls-3" d="m57.858,11.064c5.88,9.684-.448,24.271-14.134,32.58-13.688,8.31-29.548,7.197-35.427-2.486-5.881-9.685.447-24.271,14.133-32.581C36.116.267,51.979,1.381,57.858,11.064Z"/>
  <path class="cls-2" d="m45.157,9.982c3.511,5.783-.869,14.859-9.784,20.273-8.916,5.414-18.991,5.113-22.503-.67-3.513-5.784.867-14.861,9.783-20.275,8.917-5.414,18.991-5.113,22.504.672Z"/>
</svg>