<?xml version="1.0" encoding="UTF-8"?>
<svg id="OBJECTS" xmlns="http://www.w3.org/2000/svg" xmlns:xlink="http://www.w3.org/1999/xlink" viewBox="0 0 138.329 138.333">
  <defs>
    <style>
      .cls-1 {
        fill: #212a3c;
        opacity: .2;
      }

      .cls-2 {
        fill: #fff;
      }

      .cls-2, .cls-3 {
        opacity: .3;
      }

      .cls-4 {
        fill: #0e577f;
      }

      .cls-5 {
        fill: #a4dbf4;
      }

      .cls-6 {
        fill: #27aae1;
      }

      .cls-7 {
        fill: #196ea5;
      }

      .cls-8 {
        fill: #5fb2e0;
      }

      .cls-3 {
        fill: url(#linear-gradient);
      }
    </style>
    <linearGradient id="linear-gradient" x1="-24.659" y1="-47.302" x2="5.811" y2="8.766" gradientTransform="translate(63.933 56.901) rotate(-9.046) scale(.831 .851) skewX(1.295)" gradientUnits="userSpaceOnUse">
      <stop offset="0" stop-color="#fff"/>
      <stop offset="1" stop-color="#fff" stop-opacity="0"/>
    </linearGradient>
  </defs>
  <g>
    <g>
      <path class="cls-7" d="m138.329,70.167c-.553,38.194-31.963,68.711-70.16,68.159C29.972,137.775-.543,106.363.007,68.168.56,29.972,31.97-.545,70.167.007c38.197.551,68.713,31.963,68.162,70.159Z"/>
      <g>
        <path class="cls-6" d="m138.142,64.196c-5.229.144-10.433.098-15.557-1.23-8.681-2.25-16.48-7.04-25.229-9.09-11.84-2.775-24.451-3.18-36.52-2.01-11.934,1.157-23.052,6.293-34.953,7.603-8.331.917-16.783.474-25.196.083-.393,2.821-.636,5.692-.68,8.615-.021,1.483.02,2.954.093,4.416,3.649.053,7.297.106,10.946.159,18.22.262,35.813,6.616,53.858,8.588,12.383,1.354,24.88.429,37.248-.678,5.32-.477,9.815-3.74,15.093-4.244,4.496-.427,9.02-.491,13.537-.593.532-.013,3.588.012,7.213.003.18-1.865.306-3.748.333-5.653.028-2.013-.047-3.999-.186-5.971Z"/>
        <path class="cls-6" d="m133.164,95.405c-3.065.567-7.393,1.46-9.217,2.264-2.962,1.304-12.92,2.845-15.876,3.812-2.957.967-7.363.23-7.363.23,0,0-21.336-.309-22.439-.324-1.104-.017-13.214-2.213-16.132-3.938-2.92-1.725-10.271-2.169-10.271-2.169l-23.864-3.712-23.395,2.415c2.453,6.372,5.818,12.293,9.946,17.6,7.078.173,14.03,1.207,17.925,1.263,4.046.059,12.86,1.197,17.261,2.27,4.4,1.074,8.087.455,9.927.481,1.84.026,18.403-.409,33.496-.863,15.092-.455,8.829.127,11.782-.503,2.951-.631,7.725.111,11.403.164,2.776.04,3.877.057,5.201-.07,4.827-5.592,8.764-11.97,11.616-18.919Z"/>
        <path class="cls-6" d="m9.528,34.151c10.843-2.929,28.488-5.993,45.451-1.478,27.122,7.219,34.873,5.533,44.469,3.516,9.596-2.016,15.487-2.291,17.695-2.258,1.225.018,6.871.1,11.652.168-3.179-5.394-7.079-10.308-11.554-14.637-1.465-.173-2.87-.305-3.934-.32-3.312-.048-9.19-.492-14.705-.932-5.512-.439-16.528-2.035-18.367-2.06-1.838-.027-1.833-.388-9.185-.854-7.353-.465-19.461-2.795-24.606-3.23-4.974-.419-8.58-1.481-13.8-1.624-9.483,5.911-17.434,14.052-23.116,23.708Z"/>
      </g>
      <path class="cls-8" d="m104.702,67.289c-.078,5.485-12.083,9.761-26.814,9.547-14.73-.213-26.606-4.832-26.527-10.317.08-5.485,12.084-9.761,26.813-9.548,14.732.213,26.608,4.832,26.528,10.318Z"/>
      <path class="cls-5" d="m92.929,67.119c-.043,3.065-6.749,5.451-14.979,5.333-8.228-.12-14.862-2.7-14.817-5.765.043-3.062,6.749-5.451,14.979-5.332,8.23.119,14.862,2.7,14.817,5.764Z"/>
      <path class="cls-8" d="m98.648,27.632c-.121,3.327-7.461,5.761-16.396,5.436-8.934-.324-16.08-3.285-15.959-6.612.12-3.326,7.462-5.762,16.396-5.436,8.935.324,16.079,3.284,15.958,6.612Z"/>
      <path class="cls-5" d="m91.508,27.373c-.067,1.859-4.167,3.219-9.159,3.037-4.992-.182-8.982-1.836-8.915-3.693.067-1.859,4.166-3.219,9.159-3.037,4.991.181,8.982,1.834,8.915,3.693Z"/>
      <path class="cls-5" d="m43.209,21.848c-.052,1.444-3.238,2.5-7.116,2.36-3.876-.141-6.976-1.428-6.924-2.87.053-1.444,3.237-2.501,7.116-2.358,3.875.141,6.976,1.424,6.924,2.868Z"/>
      <path class="cls-8" d="m34.235,67.649c-.024,1.677-6.056,2.948-13.471,2.841-7.417-.107-13.409-1.552-13.385-3.229.024-1.676,6.057-2.947,13.473-2.84,7.415.106,13.408,1.553,13.383,3.227Z"/>
      <path class="cls-8" d="m117.5,107.855c-.021,1.487-5.371,2.615-11.947,2.519-6.579-.095-11.895-1.375-11.872-2.863.021-1.488,5.371-2.615,11.948-2.519,6.578.094,11.893,1.376,11.871,2.863Z"/>
      <path class="cls-5" d="m59.595,104.478c-.058,2.072-7.534,3.546-16.698,3.293-9.165-.254-16.551-2.14-16.494-4.211.058-2.072,7.536-3.545,16.701-3.292,9.165.253,16.548,2.139,16.491,4.21Z"/>
    </g>
    <path class="cls-4" d="m136.298,85.8c-.364,1.477-.767,2.939-1.225,4.377-1.91-.045-3.822-.045-5.73.055-4.322.227-8.359,1.559-12.614,2.174-5.877.855-12.426,1.656-18.365,1.654-4.089,0-8.155-.543-12.222-.92-3.43-.316-7.144.098-10.503-.699-6.559-1.555-13.613-2.838-20.301-3.69-8.316-1.057-16.786-2.782-25.126-3.402-5.695-.421-11.699-.812-17.396-.827-3.4-.01-6.767.057-10.16.12-.298.004-.599.01-.898.015-.184-.802-.367-1.605-.521-2.417,5.82.01,11.833.715,17.476,1.082,11.459.747,22.901,1.791,34.384,2.104,5.979.162,11.582,1.766,17.466,2.601,4.138.587,7.938,1.177,12.1.974,6.535-.318,13.073.062,19.607.223,6.008.149,11.905-.488,17.892-.561,5.463-.067,10.834-1.518,16.138-2.86ZM22.865,46.059c4.736-.653,8.892-1.382,13.731-1.29,8.812.168,17.614.364,26.422.592,13.664.354,27.331-1.053,40.901,1.211,4.668.779,9.155,2.476,13.912,2.848,5.483.428,11.769-.99,17.111.277.153.037.382.07.639.102-.522-1.791-1.128-3.546-1.787-5.274-15.08.21-30.319-.753-45.262-2.32-7.93-.831-15.902-1.966-23.862-2.438-16.14-.952-32.301-.45-48.456-.638-3.087-.035-6.173-.104-9.261-.193-1.619,3.329-2.973,6.807-4.047,10.409,6.659-.836,13.336-2.37,19.958-3.285ZM48.197,3.257l10.849,2.477s7.539.293,8.275.303c.735.012,11.94,1.277,13.041,1.477,1.101.2,10.634,2.545,11.369,2.557.736.01,6.614.646,7.901.666,1.075.015,5.607.338,7.391.555C96.418,4.339,83.786.204,70.167.007c-7.664-.111-15.047,1.048-21.97,3.25Zm36.588,118.383c-.552-.007-6.078.465-6.817.637-.739.176-8.855,1.713-8.855,1.713,0,0-8.457-.49-9.009-.498-.552-.008-8.093-.117-10.298-.333-2.204-.216-15.98-1.702-15.98-1.702l-10.08-.146c11.902,10.38,27.394,16.769,44.422,17.015,16.786.242,32.258-5.518,44.381-15.291-.004-.045-.005-.074-.005-.074,0,0-9.553-.873-10.105-.88-.551-.009-7.541-.108-8.461-.123-.919-.013-8.643-.308-9.193-.317Z"/>
  </g>
  <g>
    <path class="cls-1" d="m125.486,29.024c-20.197,29.552-64.64,85.834-109.339,84.53,12.47,14.881,31.084,24.469,52.021,24.771,38.197.552,69.608-29.965,70.16-68.159.222-15.327-4.569-29.556-12.843-41.143Z"/>
    <path class="cls-1" d="m138.206,65.248c-21.367,27.604-62.381,67.318-115.216,55.389,11.999,10.775,27.786,17.439,45.179,17.69,38.197.552,69.608-29.965,70.16-68.159.023-1.655-.031-3.292-.123-4.919Z"/>
  </g>
  <path class="cls-3" d="m95.336,16.085c9.803,16.688-1.365,41.449-24.95,55.307-23.584,13.859-50.65,11.563-60.455-5.123C.127,49.581,11.295,24.82,34.878,10.962,58.461-2.895,85.529-.602,95.336,16.085Z"/>
  <path class="cls-2" d="m73.666,13.922c5.855,9.966-1.852,25.364-17.216,34.392-15.363,9.029-32.565,8.266-38.42-1.7-5.858-9.968,1.848-25.364,17.213-34.394,15.364-9.028,32.565-8.267,38.423,1.702Z"/>
</svg>