<?xml version="1.0" encoding="UTF-8"?>
<svg id="OBJECTS" xmlns="http://www.w3.org/2000/svg" xmlns:xlink="http://www.w3.org/1999/xlink" viewBox="0 0 76.596 76.5">
  <defs>
    <style>
      .cls-1 {
        fill: #212a3c;
        opacity: .2;
      }

      .cls-2 {
        fill: #f15a29;
      }

      .cls-3 {
        fill: #fff;
      }

      .cls-3, .cls-4 {
        opacity: .3;
      }

      .cls-5 {
        fill: #ea3232;
      }

      .cls-4 {
        fill: url(#linear-gradient);
      }
    </style>
    <linearGradient id="linear-gradient" x1="-95.715" y1="-5.727" x2="-79.951" y2="23.281" gradientTransform="translate(99.442 3.869) rotate(-9.046) scale(.831 .851) skewX(1.295)" gradientUnits="userSpaceOnUse">
      <stop offset="0" stop-color="#fff"/>
      <stop offset="1" stop-color="#fff" stop-opacity="0"/>
    </linearGradient>
  </defs>
  <g>
    <circle class="cls-5" cx="38.25" cy="38.25" r="38.25"/>
    <path class="cls-2" d="m38.25,0C21.732,0,7.66,10.471,2.309,25.137c4.871-1.376,8.959-.687,12.858,1.696,4.5,2.75,10.5-.666,14.833-8.833,4.333-8.167,7.75,1.417,12.75,7.25s7.583-3.417,5.583-11.833c-.287-1.208-1.103-4.901.818-5.249,2.148-.389,3.976,1.566,5.434,2.839,1.745,1.523,3.492,3.163,5.583,4.204,2.337,1.164,4.933,1.912,7.457,2.545.609.152,1.219.304,1.832.44.225.05,1.458.146,1.561.316C64.32,7.418,52.152,0,38.25,0Z"/>
    <path class="cls-1" d="m47.853,75.283c3.885-1.005,7.525-2.612,10.828-4.704.878-.592,1.733-1.221,2.564-1.884,2.938-2.348,5.642-5.049,7.975-8.008,4.575-6.304,7.28-14.053,7.28-22.438,0-1.548-.103-3.07-.281-4.569-.595,1.473-1.457,3.557-1.716,4.192-1.258,3.093-1.702,7.132-4.725,9.127-.912.602-2.484.465-3.385-.147-2.477-1.683-3.667-4.729-4.877-7.337-.665-1.433-1.25-2.882-1.759-4.377-.245-.722-.537-1.44-.735-2.177-.008-.028-.014-.059-.022-.087.922,4.418,2.681,12.64-.893,16.378-7.422,7.764-18.573-2.513-21.212-9.77-1.09-2.998-1.92-6.666-2.02-9.858.34,10.772-9.559,19.168-18.898,22.595-2.713.996-7.165,1.766-9.969.698-1.162-.442-3.873-1.968-4.27-3.24.017.055.037.107.054.162.15.467.306.931.471,1.391.081.225.169.445.254.668.119.311.24.622.366.93.097.233.196.465.298.696.129.297.263.591.399.884.104.224.208.448.317.67.157.32.321.636.487.951.097.184.189.369.288.551.259.473.526.94.805,1.399.106.177.22.35.329.524.189.303.381.604.578.901.132.198.267.394.402.589.188.272.381.543.576.811.14.19.279.381.423.568.214.283.435.56.657.837.129.161.256.324.388.482.348.418.702.829,1.066,1.23.097.107.199.21.298.316.283.306.569.608.862.904.151.154.307.304.462.454.251.246.504.488.762.727.164.152.329.303.495.451.27.241.543.477.819.709.155.132.309.265.466.393.373.305.752.602,1.136.894.064.048.125.098.189.146.443.331.895.65,1.354.963.156.106.316.208.474.312.316.209.636.415.959.614.18.111.36.22.542.328.319.191.642.375.966.556.176.098.351.196.528.291.386.207.776.406,1.171.6.116.058.23.118.347.175.509.244,1.025.477,1.545.698.145.061.291.117.435.177.386.159.773.314,1.165.46.19.07.383.139.574.207.36.128.724.25,1.089.368.194.062.389.125.585.184.399.121.803.234,1.208.343.157.042.312.088.47.128.561.143,1.126.274,1.695.392.106.021.214.038.32.06.468.092.938.177,1.412.252.195.031.392.058.589.085.395.057.792.108,1.191.151.211.023.422.046.633.065.41.038.822.068,1.236.094.189.012.378.026.568.035.6.028,1.201.046,1.808.046,2.097,0,4.291-.336,6.365-.63,1.086-.154,2.167-.348,3.238-.587Z"/>
  </g>
  <path class="cls-4" d="m50.496,9.292c5.073,8.635-.705,21.444-12.908,28.614-12.202,7.171-26.206,5.982-31.278-2.65-5.073-8.634.707-21.445,12.907-28.614C31.418-.527,45.422.658,50.496,9.292Z"/>
  <path class="cls-3" d="m39.285,8.173c3.028,5.157-.959,13.123-8.908,17.794-7.948,4.67-16.848,4.276-19.877-.881-3.031-5.156.955-13.122,8.906-17.794,7.948-4.67,16.849-4.276,19.879.881Z"/>
</svg>