<svg width="688" height="687" viewBox="0 0 688 687" fill="none" xmlns="http://www.w3.org/2000/svg">
<path d="M687.24 343.503C687.24 533.21 533.464 687.006 343.763 687.006C154.062 687.006 0.291504 533.216 0.291504 343.503C0.291504 153.79 154.073 0 343.763 0C533.452 0 687.24 153.784 687.24 343.503Z" fill="#F7941E"/>
<path d="M497.895 164.013C481.39 159.46 464.313 157.665 447.487 154.743C409.546 148.121 371.049 139.78 332.319 140.85C313.699 141.364 224.316 147.542 237.764 184.324C242.147 196.3 259.51 200.339 270.001 204.29C296.756 214.361 325.919 218.99 354.364 214.916C373.095 212.233 390.786 203.84 409.838 203.109C431.883 202.238 453.945 201.923 476.002 201.73C480.712 201.689 498.199 202.94 513.481 201.706C527.771 200.555 540.137 197.247 538.308 188.696C535.269 174.534 509.542 167.222 497.889 164.007L497.895 164.013Z" fill="#FBB040"/>
<path d="M622.514 142.907C560.143 56.3854 458.568 0 343.763 0C244.105 0 154.406 42.4922 91.6675 110.287C167.2 107.481 243.275 106.716 317.077 89.5551C337.182 84.8733 357.362 78.6778 378.332 79.3266C426.138 80.8111 469.772 101.999 513.382 118.645C543.013 129.961 586.103 146.151 622.502 142.907H622.514Z" fill="#E05B41"/>
<path d="M600.194 403.647C587.377 402.285 573.497 398.69 560.639 401.537C551.733 403.501 534.901 413.618 547.718 423.25C551.142 425.822 560.698 426.348 564.894 427.166C592.579 432.509 621.514 436.857 649.52 440.165C657.281 441.077 665.06 441.615 672.845 441.948C676.667 429.13 679.747 415.991 682.067 402.595C654.867 405.628 627.446 406.546 600.188 403.658L600.194 403.647Z" fill="#E05B41"/>
<path d="M613.887 484.832C600.211 484.487 466.09 460.798 461.654 477.666C457.937 491.992 446.804 525.974 443.092 534.922C439.37 543.871 405.958 554.602 405.958 554.602C405.958 554.602 387.39 552.813 361.406 558.179C276.453 575.731 196.105 446.969 116.36 504.494C101.486 515.243 66.2269 511.666 51.3823 517.031C50.1317 517.481 49.0271 517.791 47.9751 518.048C107.763 619.147 217.817 686.994 343.762 686.994C481.49 686.994 600.211 605.897 654.961 488.876C642.53 486.743 628.831 485.212 613.887 484.832Z" fill="#E05B41"/>
<path d="M271.351 415.459C251.749 415.021 231.014 409.801 211.622 414.553C200.197 417.347 181.062 427.219 197.906 438.12C208.303 444.859 223.609 441.346 235.309 443.719C250.072 446.717 264.023 452.837 277.692 459.015C307.528 472.505 334.593 484.545 368.391 476.1C390.874 470.477 411.329 465.976 425.975 446.273C434.104 435.326 437.517 417.224 449.317 409.34C433.28 400.046 412.848 406.902 396.069 410.38C355.305 418.802 312.682 416.388 271.351 415.459Z" fill="#FBB040"/>
<path d="M95.0337 204.921C107.903 204.272 122.181 205.658 134.43 200.847C142.922 197.521 157.965 184.897 143.799 177.38C140.023 175.375 130.509 176.346 126.231 176.199C99.0604 175.264 70.9025 175.451 43.6562 176.451C36.5787 189.134 30.3136 202.326 24.8667 215.939C47.8641 210.176 71.2882 206.137 95.0337 204.921Z" fill="#F15A29"/>
<path d="M19.8172 327.4C43.9426 332.766 45.8011 329.195 77.3663 338.137C108.926 347.074 157.2 347.08 164.622 348.869C172.05 350.663 186.901 350.663 192.476 350.663H370.693C378.11 350.663 426.39 347.08 441.234 345.291C456.09 343.503 493.219 341.709 493.219 341.709C493.219 341.709 496.936 341.709 535.924 336.343C574.911 330.977 617.604 323.829 634.307 332.772C643.576 337.734 667.117 339.949 687.204 341.843C687.111 322.765 685.41 304.085 682.336 285.873L595.326 263.002L508.076 270.162C508.076 270.162 459.807 295.201 446.81 298.784C433.812 302.367 415.25 300.578 405.964 300.578C396.677 300.578 346.568 297.001 346.568 297.001C346.568 297.001 309.433 288.053 276.015 288.053C242.597 288.053 166.481 284.476 155.353 288.053C144.214 291.636 118.218 291.636 112.649 291.636H4.20703C2.5414 302.665 1.40176 313.864 0.793945 325.208C5.69734 324.992 11.3839 325.542 19.8289 327.418L19.8172 327.4Z" fill="#F15A29"/>
<path d="M238.232 241.744C238.232 250.271 218.911 257.174 195.071 257.174C171.232 257.174 151.911 250.271 151.911 241.744C151.911 233.216 171.232 226.313 195.071 226.313C218.911 226.313 238.232 233.228 238.232 241.744Z" fill="#FBB040"/>
<path d="M603.835 365.86C603.835 371.289 591.521 375.696 576.331 375.696C561.142 375.696 548.828 371.289 548.828 365.86C548.828 360.43 561.148 356.028 576.331 356.028C591.515 356.028 603.835 360.43 603.835 365.86Z" fill="#FBB040"/>
<path d="M112.789 387.328C112.789 392.763 100.469 397.165 85.2798 397.165C70.0904 397.165 57.7764 392.763 57.7764 387.328C57.7764 381.892 70.0904 377.497 85.2798 377.497C100.469 377.497 112.789 381.904 112.789 387.328Z" fill="#FBB040"/>
<path d="M633.898 223.186C633.898 227.88 623.262 231.673 610.147 231.673C597.032 231.673 586.396 227.88 586.396 223.186C586.396 218.493 597.026 214.694 610.147 214.694C623.267 214.694 633.898 218.493 633.898 223.186Z" fill="#FBB040"/>
<path d="M423.707 514.793C423.707 519.486 413.065 523.285 399.95 523.285C386.835 523.285 376.205 519.486 376.205 514.793C376.205 510.099 386.83 506.312 399.95 506.312C413.071 506.312 423.707 510.105 423.707 514.793Z" fill="#FBB040"/>
<path d="M147.323 136.413C147.323 141.107 136.68 144.906 123.572 144.906C110.463 144.906 99.8203 141.107 99.8203 136.413C99.8203 131.72 110.445 127.927 123.572 127.927C136.698 127.927 147.323 131.72 147.323 136.413Z" fill="#FBB040"/>
<path opacity="0.2" d="M77.8926 560.938C140.877 637.874 236.578 687 343.763 687C533.464 687 687.24 533.21 687.24 343.497C687.24 265.667 661.32 193.909 617.692 136.32C519.186 285.019 300.719 569.869 77.8926 560.938Z" fill="#212A3C"/>
<path opacity="0.2" d="M108.014 593.178C169.532 651.294 252.457 687 343.763 687C533.464 687 687.24 533.21 687.24 343.497C687.24 332.409 686.661 321.456 685.632 310.637C581.574 450.324 376.918 656.501 108.014 593.178Z" fill="#212A3C"/>
<path opacity="0.3" d="M466.487 83.8271C515.358 164.334 462.759 285.604 348.999 354.678C235.233 423.765 103.397 414.495 54.5208 333.999C5.6447 253.498 58.2436 132.234 172.003 63.1538C285.763 -5.93839 417.611 3.33157 466.487 83.8271Z" fill="url(#paint0_linear_75_115)"/>
<path opacity="0.3" d="M360.916 74.826C390.108 122.918 353.692 198.369 279.58 243.374C205.474 288.374 121.725 285.878 92.5383 237.798C63.3401 189.713 99.7502 114.25 173.862 69.25C247.98 24.2504 331.723 26.7403 360.916 74.826Z" fill="white"/>
<defs>
<linearGradient id="paint0_linear_75_115" x1="184.527" y1="108.803" x2="349.786" y2="313.085" gradientUnits="userSpaceOnUse">
<stop stop-color="white"/>
<stop offset="1" stop-color="white" stop-opacity="0"/>
</linearGradient>
</defs>
</svg>
